<svg width="22" height="22" viewBox="0 0 22 22" fill="none" xmlns="http://www.w3.org/2000/svg">
<path d="M2.49313 2.94659L4.379 3.27299L5.25212 13.6752C5.32193 14.5247 6.03185 15.1766 6.88412 15.1739H16.7749C17.5882 15.1757 18.2782 14.5773 18.3933 13.7722L19.2538 7.82627C19.3499 7.16169 18.8884 6.54515 18.2247 6.44905C18.1667 6.44089 4.68183 6.43635 4.68183 6.43635" stroke="#848994" stroke-width="1.5" stroke-linecap="round" stroke-linejoin="round"/>
<path d="M12.8065 9.78732H15.3206" stroke="#848994" stroke-width="1.5" stroke-linecap="round" stroke-linejoin="round"/>
<path fill-rule="evenodd" clip-rule="evenodd" d="M6.48636 18.317C6.75927 18.317 6.97959 18.5382 6.97959 18.8102C6.97959 19.0831 6.75927 19.3043 6.48636 19.3043C6.21345 19.3043 5.99313 19.0831 5.99313 18.8102C5.99313 18.5382 6.21345 18.317 6.48636 18.317Z" fill="#848994" stroke="#848994" stroke-width="1.5" stroke-linecap="round" stroke-linejoin="round"/>
<path fill-rule="evenodd" clip-rule="evenodd" d="M16.7138 18.317C16.9867 18.317 17.208 18.5382 17.208 18.8102C17.208 19.0831 16.9867 19.3043 16.7138 19.3043C16.4409 19.3043 16.2206 19.0831 16.2206 18.8102C16.2206 18.5382 16.4409 18.317 16.7138 18.317Z" fill="#848994" stroke="#848994" stroke-width="1.5" stroke-linecap="round" stroke-linejoin="round"/>
</svg>
