<svg width="22" height="22" viewBox="0 0 22 22" fill="none" xmlns="http://www.w3.org/2000/svg">
<path fill-rule="evenodd" clip-rule="evenodd" d="M6.64644 1.81372H15.1138C18.1974 1.81372 19.9382 3.56268 19.9472 6.64625V15.1145C19.9472 18.1972 18.1974 19.9471 15.1138 19.9471H6.64644C3.56286 19.9471 1.8139 18.1972 1.8139 15.1145V6.64625C1.8139 3.56268 3.56286 1.81372 6.64644 1.81372ZM10.925 16.1935C11.3158 16.1935 11.6413 15.9033 11.6775 15.5135V6.27452C11.7138 5.99345 11.5787 5.71148 11.3339 5.55825C11.0791 5.40412 10.7709 5.40412 10.527 5.55825C10.2813 5.71148 10.1462 5.99345 10.1725 6.27452V15.5135C10.2187 15.9033 10.5442 16.1935 10.925 16.1935ZM15.0966 16.1935C15.4774 16.1935 15.8029 15.9033 15.8491 15.5135V12.5396C15.8754 12.2485 15.7403 11.9775 15.4946 11.8233C15.2507 11.6692 14.9424 11.6692 14.6886 11.8233C14.4429 11.9775 14.3078 12.2485 14.344 12.5396V15.5135C14.3803 15.9033 14.7058 16.1935 15.0966 16.1935ZM7.45246 15.5135C7.4162 15.9033 7.0907 16.1935 6.69993 16.1935C6.31006 16.1935 5.98366 15.9033 5.9483 15.5135V9.24839C5.9211 8.96641 6.0562 8.68625 6.3019 8.53212C6.5458 8.37799 6.85497 8.37799 7.09977 8.53212C7.34366 8.68625 7.48057 8.96641 7.45246 9.24839V15.5135Z" fill="#5A92ED"/>
</svg>
