<svg width="23" height="23" viewBox="0 0 23 23" fill="none" xmlns="http://www.w3.org/2000/svg">
<path d="M8.81503 19.7146V16.9423C8.81503 16.2346 9.39293 15.6609 10.1058 15.6609H12.7117C13.0541 15.6609 13.3824 15.7959 13.6245 16.0362C13.8665 16.2765 14.0025 16.6025 14.0025 16.9423V19.7146C14.0004 20.0089 14.1166 20.2918 14.3254 20.5006C14.5342 20.7094 14.8183 20.8268 15.1147 20.8268H16.8926C17.7229 20.8289 18.52 20.503 19.1079 19.9209C19.6958 19.3388 20.0262 18.5483 20.0262 17.724V9.8261C20.0261 9.16024 19.7288 8.52864 19.2144 8.10145L13.1663 3.30627C12.1143 2.46551 10.6069 2.49266 9.58625 3.37074L3.67626 8.10145C3.13745 8.51605 2.81541 9.14952 2.7995 9.8261V17.716C2.7995 19.434 4.20246 20.8268 5.9331 20.8268H7.67038C8.28594 20.8268 8.78622 20.3338 8.79068 19.7227L8.81503 19.7146Z" fill="#5A92ED"/>
</svg>
