<svg width="20" height="20" viewBox="0 0 20 20" fill="none" xmlns="http://www.w3.org/2000/svg">
<path d="M7.30272 17.8328V15.0523C7.3027 14.345 7.87927 13.7704 8.59363 13.7656H11.2103C11.9281 13.7656 12.51 14.3417 12.51 15.0523V15.0523V17.8414C12.5098 18.4419 12.9939 18.9326 13.6003 18.9467H15.3447C17.0838 18.9467 18.4935 17.551 18.4935 15.8294V15.8294V7.91966C18.4842 7.24237 18.163 6.60636 17.6213 6.19264L11.6552 1.43469C10.61 0.606241 9.1242 0.606241 8.07901 1.43469L2.13908 6.20127C1.59529 6.61332 1.27354 7.25038 1.26685 7.92829V15.8294C1.26685 17.551 2.6766 18.9467 4.41562 18.9467H6.16009C6.78151 18.9467 7.28528 18.448 7.28528 17.8328V17.8328" stroke="#848994" stroke-width="1.5" stroke-linecap="round" stroke-linejoin="round"/>
</svg>
