<svg width="25" height="25" viewBox="0 0 25 25" fill="none" xmlns="http://www.w3.org/2000/svg">
<path fill-rule="evenodd" clip-rule="evenodd" d="M18.3128 8.96261H22.5439C22.5439 5.5654 20.5084 3.58081 17.0595 3.58081H8.02839C4.5795 3.58081 2.54395 5.5654 2.54395 8.91928V16.2423C2.54395 19.5962 4.5795 21.5808 8.02839 21.5808H17.0595C20.5084 21.5808 22.5439 19.5962 22.5439 16.2423V15.9304H18.3128C16.3492 15.9304 14.7573 14.3783 14.7573 12.4638C14.7573 10.5493 16.3492 8.99728 18.3128 8.99728V8.96261ZM18.3126 10.4532H21.7971C22.2095 10.4532 22.5438 10.7791 22.5438 11.1812V13.7118C22.5389 14.1119 22.2075 14.4351 21.7971 14.4397H18.3926C17.3985 14.4528 16.5292 13.7892 16.3038 12.8451C16.1908 12.2591 16.3493 11.6544 16.7368 11.193C17.1243 10.7317 17.7011 10.4609 18.3126 10.4532ZM18.4638 13.1138H18.7927C19.2149 13.1138 19.5571 12.7801 19.5571 12.3685C19.5571 11.9568 19.2149 11.6232 18.7927 11.6232H18.4638C18.2619 11.6208 18.0674 11.6974 17.9238 11.8358C17.7802 11.9742 17.6994 12.1629 17.6994 12.3598C17.6993 12.7728 18.0402 13.109 18.4638 13.1138ZM7.28167 8.96264H12.9261C13.3483 8.96264 13.6906 8.62896 13.6906 8.21734C13.6906 7.80572 13.3483 7.47203 12.9261 7.47203H7.28167C6.86292 7.472 6.52209 7.80044 6.51722 8.20867C6.51719 8.62172 6.85804 8.9579 7.28167 8.96264Z" fill="#5A92ED"/>
</svg>
