<svg width="23" height="22" viewBox="0 0 23 22" fill="none" xmlns="http://www.w3.org/2000/svg">
<path d="M12.5644 0.831543C10.2493 0.842811 8.00332 1.62175 6.17839 3.04632C4.35345 4.4709 3.05264 6.46061 2.47977 8.70374L1.779 7.64397C1.71266 7.53302 1.62453 7.43665 1.51993 7.36068C1.41534 7.28471 1.29644 7.23071 1.17041 7.20194C1.04438 7.17317 0.913826 7.17022 0.786625 7.19327C0.659424 7.21632 0.538209 7.2649 0.43029 7.33607C0.322371 7.40724 0.229984 7.49953 0.1587 7.60737C0.0874164 7.71521 0.0387124 7.83638 0.0155254 7.96355C-0.00766158 8.09073 -0.00485126 8.22129 0.0237869 8.34735C0.0524251 8.47341 0.106298 8.59236 0.182156 8.69704L2.2883 11.8888C2.4346 12.0935 2.6503 12.2381 2.89525 12.2957C3.14538 12.3453 3.40499 12.2955 3.619 12.1569L6.77822 10.0287C6.88715 9.96068 6.98127 9.87143 7.055 9.76628C7.12872 9.66113 7.18054 9.54223 7.20736 9.41664C7.23418 9.29105 7.23547 9.16135 7.21113 9.03526C7.18679 8.90916 7.13733 8.78925 7.0657 8.68267C6.99406 8.57609 6.90172 8.485 6.79415 8.41484C6.68659 8.34468 6.56601 8.29688 6.4396 8.27428C6.31318 8.25169 6.18351 8.25475 6.0583 8.28331C5.93309 8.31186 5.81491 8.36531 5.71079 8.44047L4.27382 9.4093C4.65626 7.85687 5.46737 6.44319 6.6146 5.32957C7.76183 4.21594 9.19898 3.44721 10.7621 3.11107C12.3252 2.77494 13.9513 2.88495 15.4549 3.42854C16.9585 3.97213 18.279 4.92742 19.2658 6.18541C20.2526 7.4434 20.866 8.95343 21.0358 10.5432C21.2057 12.133 20.9253 13.7386 20.2266 15.1766C19.5279 16.6147 18.439 17.8275 17.0842 18.6765C15.7294 19.5255 14.1632 19.9766 12.5644 19.9783C11.1938 19.9746 9.84437 19.64 8.63081 19.003C7.41726 18.366 6.37546 17.4453 5.59399 16.3194C5.524 16.2119 5.43313 16.1196 5.32678 16.0479C5.22042 15.9762 5.10075 15.9267 4.97486 15.9021C4.84898 15.8776 4.71945 15.8786 4.59397 15.9051C4.46848 15.9316 4.3496 15.9831 4.24438 16.0564C4.13916 16.1297 4.04975 16.2235 3.98146 16.332C3.91316 16.4406 3.86737 16.5617 3.84681 16.6883C3.82625 16.8149 3.83134 16.9444 3.86177 17.069C3.8922 17.1935 3.94735 17.3107 4.02396 17.4136C5.29441 19.2452 7.11887 20.6209 9.22921 21.3386C11.3395 22.0563 13.6245 22.0781 15.7481 21.4009C17.8718 20.7236 19.7222 19.383 21.0274 17.5761C22.3326 15.7691 23.0238 13.5912 22.9994 11.3623C23.0088 8.58303 21.9155 5.91352 19.9592 3.93934C18.003 1.96515 15.3436 0.847498 12.5644 0.831543Z" fill="black"/>
<path d="M12.4686 5.57031C12.2147 5.57031 11.9712 5.67117 11.7916 5.85071C11.6121 6.03025 11.5112 6.27375 11.5112 6.52765V11.3622C11.5153 11.6153 11.6156 11.8573 11.7917 12.0391L14.6637 14.9369C14.844 15.1143 15.0864 15.2143 15.3392 15.2155C15.5921 15.2168 15.8355 15.1192 16.0174 14.9436C16.1977 14.7649 16.2995 14.5218 16.3006 14.268C16.3017 14.0141 16.2019 13.7702 16.0232 13.5899L13.4259 10.9687V6.52765C13.4259 6.27375 13.325 6.03025 13.1455 5.85071C12.966 5.67117 12.7225 5.57031 12.4686 5.57031Z" fill="black"/>
</svg>
