<svg width="244" height="220" viewBox="0 0 244 220" fill="none" xmlns="http://www.w3.org/2000/svg">
<path d="M135.556 215.657C195.108 215.657 243.384 167.38 243.384 107.828C243.384 48.2764 195.108 0 135.556 0C76.0037 0 27.7273 48.2764 27.7273 107.828C27.7273 167.38 76.0037 215.657 135.556 215.657Z" fill="#61BABA" fill-opacity="0.18"/>
<mask id="mask0_201_2952" style="mask-type:luminance" maskUnits="userSpaceOnUse" x="113" y="45" width="101" height="102">
<path d="M163.659 146.319C191.441 146.319 213.963 123.797 213.963 96.0147C213.963 68.2324 191.441 45.7104 163.659 45.7104C135.876 45.7104 113.354 68.2324 113.354 96.0147C113.354 123.797 135.876 146.319 163.659 146.319Z" fill="white"/>
</mask>
<g mask="url(#mask0_201_2952)">
<path d="M115.943 47.0419C115.943 46.3022 115.352 45.7104 114.612 45.7104C113.872 45.7104 113.28 46.3022 113.28 47.0419C113.28 47.7817 113.872 48.3735 114.612 48.3735C115.352 48.2995 115.943 47.7077 115.943 47.0419Z" fill="white"/>
<path d="M128.223 47.0419C128.223 46.3022 127.632 45.7104 126.892 45.7104C126.152 45.7104 125.56 46.3022 125.56 47.0419C125.56 47.7817 126.152 48.3735 126.892 48.3735C127.632 48.2995 128.223 47.7077 128.223 47.0419Z" fill="white"/>
<path d="M140.504 47.0419C140.504 46.3022 139.912 45.7104 139.172 45.7104C138.432 45.7104 137.84 46.3022 137.84 47.0419C137.84 47.7817 138.432 48.3735 139.172 48.3735C139.912 48.2995 140.504 47.7077 140.504 47.0419Z" fill="white"/>
<path d="M152.71 47.0419C152.71 46.3022 152.118 45.7104 151.378 45.7104C150.638 45.7104 150.046 46.3022 150.046 47.0419C150.046 47.7817 150.638 48.3735 151.378 48.3735C152.118 48.2995 152.71 47.7077 152.71 47.0419Z" fill="white"/>
<path d="M164.99 47.0419C164.99 46.3022 164.398 45.7104 163.658 45.7104C162.919 45.7104 162.327 46.3022 162.327 47.0419C162.327 47.7817 162.919 48.3735 163.658 48.3735C164.398 48.2995 164.99 47.7077 164.99 47.0419Z" fill="white"/>
<path d="M177.196 47.0419C177.196 46.3022 176.604 45.7104 175.865 45.7104C175.125 45.7104 174.533 46.3022 174.533 47.0419C174.533 47.7817 175.125 48.3735 175.865 48.3735C176.604 48.3735 177.196 47.7077 177.196 47.0419Z" fill="white"/>
<path d="M189.476 47.0419C189.476 46.3022 188.884 45.7104 188.144 45.7104C187.405 45.7104 186.813 46.3022 186.813 47.0419C186.813 47.7817 187.405 48.3735 188.144 48.3735C188.884 48.2995 189.476 47.7077 189.476 47.0419Z" fill="white"/>
<path d="M201.682 47.0419C201.682 46.3022 201.091 45.7104 200.351 45.7104C199.611 45.7104 199.019 46.3022 199.019 47.0419C199.019 47.7817 199.611 48.3735 200.351 48.3735C201.091 48.2995 201.682 47.7077 201.682 47.0419Z" fill="white"/>
<path d="M213.963 47.0419C213.963 46.3022 213.371 45.7104 212.631 45.7104C211.891 45.7104 211.299 46.3022 211.299 47.0419C211.299 47.7817 211.891 48.3735 212.631 48.3735C213.371 48.2995 213.963 47.7077 213.963 47.0419Z" fill="white"/>
<path d="M115.943 59.2481C115.943 58.5084 115.351 57.9166 114.612 57.9166C113.872 57.9166 113.28 58.5084 113.28 59.2481C113.28 59.9879 113.872 60.5797 114.612 60.5797C115.351 60.5797 115.943 59.9879 115.943 59.2481Z" fill="white"/>
<path d="M128.223 59.2481C128.223 58.5084 127.632 57.9166 126.892 57.9166C126.152 57.9166 125.56 58.5084 125.56 59.2481C125.56 59.9879 126.152 60.5797 126.892 60.5797C127.632 60.5797 128.223 59.9879 128.223 59.2481Z" fill="white"/>
<path d="M140.504 59.2481C140.504 58.5084 139.912 57.9166 139.172 57.9166C138.432 57.9166 137.84 58.5084 137.84 59.2481C137.84 59.9879 138.432 60.5797 139.172 60.5797C139.912 60.5797 140.504 59.9879 140.504 59.2481Z" fill="white"/>
<path d="M152.71 59.2481C152.71 58.5084 152.118 57.9166 151.378 57.9166C150.638 57.9166 150.046 58.5084 150.046 59.2481C150.046 59.9879 150.638 60.5797 151.378 60.5797C152.118 60.5797 152.71 59.9879 152.71 59.2481Z" fill="white"/>
<path d="M164.99 59.2481C164.99 58.5084 164.398 57.9166 163.658 57.9166C162.919 57.9166 162.327 58.5084 162.327 59.2481C162.327 59.9879 162.919 60.5797 163.658 60.5797C164.398 60.5797 164.99 59.9879 164.99 59.2481Z" fill="white"/>
<path d="M177.196 59.2481C177.196 58.5084 176.604 57.9166 175.865 57.9166C175.125 57.9166 174.533 58.5084 174.533 59.2481C174.533 59.9879 175.125 60.5797 175.865 60.5797C176.604 60.5797 177.196 59.9879 177.196 59.2481Z" fill="white"/>
<path d="M189.476 59.2481C189.476 58.5084 188.884 57.9166 188.144 57.9166C187.405 57.9166 186.813 58.5084 186.813 59.2481C186.813 59.9879 187.405 60.5797 188.144 60.5797C188.884 60.5797 189.476 59.9879 189.476 59.2481Z" fill="white"/>
<path d="M201.682 59.2481C201.682 58.5084 201.091 57.9166 200.351 57.9166C199.611 57.9166 199.019 58.5084 199.019 59.2481C199.019 59.9879 199.611 60.5797 200.351 60.5797C201.091 60.5797 201.682 59.9879 201.682 59.2481Z" fill="white"/>
<path d="M213.963 59.2481C213.963 58.5084 213.371 57.9166 212.631 57.9166C211.891 57.9166 211.299 58.5084 211.299 59.2481C211.299 59.9879 211.891 60.5797 212.631 60.5797C213.371 60.5797 213.963 59.9879 213.963 59.2481Z" fill="white"/>
<path d="M115.943 71.5283C115.943 70.7885 115.351 70.1967 114.612 70.1967C113.872 70.1967 113.28 70.7885 113.28 71.5283C113.28 72.2681 113.872 72.8599 114.612 72.8599C115.351 72.8599 115.943 72.2681 115.943 71.5283Z" fill="white"/>
<path d="M128.223 71.5283C128.223 70.7885 127.632 70.1967 126.892 70.1967C126.152 70.1967 125.56 70.7885 125.56 71.5283C125.56 72.2681 126.152 72.8599 126.892 72.8599C127.632 72.8599 128.223 72.2681 128.223 71.5283Z" fill="white"/>
<path d="M140.504 71.5283C140.504 70.7885 139.912 70.1967 139.172 70.1967C138.432 70.1967 137.84 70.7885 137.84 71.5283C137.84 72.2681 138.432 72.8599 139.172 72.8599C139.912 72.8599 140.504 72.2681 140.504 71.5283Z" fill="white"/>
<path d="M152.71 71.5283C152.71 70.7885 152.118 70.1967 151.378 70.1967C150.638 70.1967 150.046 70.7885 150.046 71.5283C150.046 72.2681 150.638 72.8599 151.378 72.8599C152.118 72.8599 152.71 72.2681 152.71 71.5283Z" fill="white"/>
<path d="M164.99 71.5283C164.99 70.7885 164.398 70.1967 163.658 70.1967C162.919 70.1967 162.327 70.7885 162.327 71.5283C162.327 72.2681 162.919 72.8599 163.658 72.8599C164.398 72.8599 164.99 72.2681 164.99 71.5283Z" fill="white"/>
<path d="M177.196 71.5283C177.196 70.7885 176.604 70.1967 175.865 70.1967C175.125 70.1967 174.533 70.7885 174.533 71.5283C174.533 72.2681 175.125 72.8599 175.865 72.8599C176.604 72.8599 177.196 72.2681 177.196 71.5283Z" fill="white"/>
<path d="M189.476 71.5283C189.476 70.7885 188.884 70.1967 188.144 70.1967C187.405 70.1967 186.813 70.7885 186.813 71.5283C186.813 72.2681 187.405 72.8599 188.144 72.8599C188.884 72.8599 189.476 72.2681 189.476 71.5283Z" fill="white"/>
<path d="M201.682 71.5283C201.682 70.7885 201.091 70.1967 200.351 70.1967C199.611 70.1967 199.019 70.7885 199.019 71.5283C199.019 72.2681 199.611 72.8599 200.351 72.8599C201.091 72.8599 201.682 72.2681 201.682 71.5283Z" fill="white"/>
<path d="M213.963 71.5283C213.963 70.7885 213.371 70.1967 212.631 70.1967C211.891 70.1967 211.299 70.7885 211.299 71.5283C211.299 72.2681 211.891 72.8599 212.631 72.8599C213.371 72.8599 213.963 72.2681 213.963 71.5283Z" fill="white"/>
<path d="M115.943 83.7345C115.943 82.9947 115.351 82.4029 114.612 82.4029C113.872 82.4029 113.28 82.9947 113.28 83.7345C113.28 84.4742 113.872 85.0661 114.612 85.0661C115.351 85.0661 115.943 84.4742 115.943 83.7345Z" fill="white"/>
<path d="M128.223 83.7345C128.223 82.9947 127.632 82.4029 126.892 82.4029C126.152 82.4029 125.56 82.9947 125.56 83.7345C125.56 84.4742 126.152 85.0661 126.892 85.0661C127.632 85.0661 128.223 84.4742 128.223 83.7345Z" fill="white"/>
<path d="M140.504 83.7345C140.504 82.9947 139.912 82.4029 139.172 82.4029C138.432 82.4029 137.84 82.9947 137.84 83.7345C137.84 84.4742 138.432 85.0661 139.172 85.0661C139.912 85.0661 140.504 84.4742 140.504 83.7345Z" fill="white"/>
<path d="M152.71 83.7345C152.71 82.9947 152.118 82.4029 151.378 82.4029C150.638 82.4029 150.046 82.9947 150.046 83.7345C150.046 84.4742 150.638 85.0661 151.378 85.0661C152.118 85.0661 152.71 84.4742 152.71 83.7345Z" fill="white"/>
<path d="M164.99 83.7345C164.99 82.9947 164.398 82.4029 163.658 82.4029C162.919 82.4029 162.327 82.9947 162.327 83.7345C162.327 84.4742 162.919 85.0661 163.658 85.0661C164.398 85.0661 164.99 84.4742 164.99 83.7345Z" fill="white"/>
<path d="M177.196 83.7345C177.196 82.9947 176.604 82.4029 175.865 82.4029C175.125 82.4029 174.533 82.9947 174.533 83.7345C174.533 84.4742 175.125 85.0661 175.865 85.0661C176.604 85.0661 177.196 84.4742 177.196 83.7345Z" fill="white"/>
<path d="M189.476 83.7345C189.476 82.9947 188.884 82.4029 188.144 82.4029C187.405 82.4029 186.813 82.9947 186.813 83.7345C186.813 84.4742 187.405 85.0661 188.144 85.0661C188.884 85.0661 189.476 84.4742 189.476 83.7345Z" fill="white"/>
<path d="M201.682 83.7345C201.682 82.9947 201.091 82.4029 200.351 82.4029C199.611 82.4029 199.019 82.9947 199.019 83.7345C199.019 84.4742 199.611 85.0661 200.351 85.0661C201.091 85.0661 201.682 84.4742 201.682 83.7345Z" fill="white"/>
<path d="M213.963 83.7345C213.963 82.9947 213.371 82.4029 212.631 82.4029C211.891 82.4029 211.299 82.9947 211.299 83.7345C211.299 84.4742 211.891 85.0661 212.631 85.0661C213.371 85.0661 213.963 84.4742 213.963 83.7345Z" fill="white"/>
<path d="M115.943 96.0147C115.943 95.2749 115.351 94.6831 114.612 94.6831C113.872 94.6831 113.28 95.2749 113.28 96.0147C113.28 96.7544 113.872 97.3462 114.612 97.3462C115.351 97.3462 115.943 96.7544 115.943 96.0147Z" fill="white"/>
<path d="M128.223 96.0147C128.223 95.2749 127.632 94.6831 126.892 94.6831C126.152 94.6831 125.56 95.2749 125.56 96.0147C125.56 96.7544 126.152 97.3462 126.892 97.3462C127.632 97.3462 128.223 96.7544 128.223 96.0147Z" fill="white"/>
<path d="M140.504 96.0147C140.504 95.2749 139.912 94.6831 139.172 94.6831C138.432 94.6831 137.84 95.2749 137.84 96.0147C137.84 96.7544 138.432 97.3462 139.172 97.3462C139.912 97.3462 140.504 96.7544 140.504 96.0147Z" fill="white"/>
<path d="M152.71 96.0147C152.71 95.2749 152.118 94.6831 151.378 94.6831C150.638 94.6831 150.046 95.2749 150.046 96.0147C150.046 96.7544 150.638 97.3462 151.378 97.3462C152.118 97.3462 152.71 96.7544 152.71 96.0147Z" fill="white"/>
<path d="M164.99 96.0147C164.99 95.2749 164.398 94.6831 163.658 94.6831C162.919 94.6831 162.327 95.2749 162.327 96.0147C162.327 96.7544 162.919 97.3462 163.658 97.3462C164.398 97.3462 164.99 96.7544 164.99 96.0147Z" fill="white"/>
<path d="M177.196 96.0147C177.196 95.2749 176.604 94.6831 175.865 94.6831C175.125 94.6831 174.533 95.2749 174.533 96.0147C174.533 96.7544 175.125 97.3462 175.865 97.3462C176.604 97.3462 177.196 96.7544 177.196 96.0147Z" fill="white"/>
<path d="M189.476 96.0147C189.476 95.2749 188.884 94.6831 188.144 94.6831C187.405 94.6831 186.813 95.2749 186.813 96.0147C186.813 96.7544 187.405 97.3462 188.144 97.3462C188.884 97.3462 189.476 96.7544 189.476 96.0147Z" fill="white"/>
<path d="M201.682 96.0147C201.682 95.2749 201.091 94.6831 200.351 94.6831C199.611 94.6831 199.019 95.2749 199.019 96.0147C199.019 96.7544 199.611 97.3462 200.351 97.3462C201.091 97.3462 201.682 96.7544 201.682 96.0147Z" fill="white"/>
<path d="M213.963 96.0147C213.963 95.2749 213.371 94.6831 212.631 94.6831C211.891 94.6831 211.299 95.2749 211.299 96.0147C211.299 96.7544 211.891 97.3462 212.631 97.3462C213.371 97.3462 213.963 96.7544 213.963 96.0147Z" fill="white"/>
<path d="M115.943 108.221C115.943 107.481 115.351 106.889 114.612 106.889C113.872 106.889 113.28 107.481 113.28 108.221C113.28 108.961 113.872 109.552 114.612 109.552C115.351 109.552 115.943 108.961 115.943 108.221Z" fill="white"/>
<path d="M128.223 108.221C128.223 107.481 127.632 106.889 126.892 106.889C126.152 106.889 125.56 107.481 125.56 108.221C125.56 108.961 126.152 109.552 126.892 109.552C127.632 109.552 128.223 108.961 128.223 108.221Z" fill="white"/>
<path d="M140.504 108.221C140.504 107.481 139.912 106.889 139.172 106.889C138.432 106.889 137.84 107.481 137.84 108.221C137.84 108.961 138.432 109.552 139.172 109.552C139.912 109.552 140.504 108.961 140.504 108.221Z" fill="white"/>
<path d="M152.71 108.221C152.71 107.481 152.118 106.889 151.378 106.889C150.638 106.889 150.046 107.481 150.046 108.221C150.046 108.961 150.638 109.552 151.378 109.552C152.118 109.552 152.71 108.961 152.71 108.221Z" fill="white"/>
<path d="M164.99 108.221C164.99 107.481 164.398 106.889 163.658 106.889C162.919 106.889 162.327 107.481 162.327 108.221C162.327 108.961 162.919 109.552 163.658 109.552C164.398 109.552 164.99 108.961 164.99 108.221Z" fill="white"/>
<path d="M177.196 108.221C177.196 107.481 176.604 106.889 175.865 106.889C175.125 106.889 174.533 107.481 174.533 108.221C174.533 108.961 175.125 109.552 175.865 109.552C176.604 109.552 177.196 108.961 177.196 108.221Z" fill="white"/>
<path d="M189.476 108.221C189.476 107.481 188.884 106.889 188.144 106.889C187.405 106.889 186.813 107.481 186.813 108.221C186.813 108.961 187.405 109.552 188.144 109.552C188.884 109.552 189.476 108.961 189.476 108.221Z" fill="white"/>
<path d="M201.682 108.221C201.682 107.481 201.091 106.889 200.351 106.889C199.611 106.889 199.019 107.481 199.019 108.221C199.019 108.961 199.611 109.552 200.351 109.552C201.091 109.552 201.682 108.961 201.682 108.221Z" fill="white"/>
<path d="M213.963 108.221C213.963 107.481 213.371 106.889 212.631 106.889C211.891 106.889 211.299 107.481 211.299 108.221C211.299 108.961 211.891 109.552 212.631 109.552C213.371 109.552 213.963 108.961 213.963 108.221Z" fill="white"/>
<path d="M115.943 120.501C115.943 119.761 115.351 119.169 114.612 119.169C113.872 119.169 113.28 119.761 113.28 120.501C113.28 121.241 113.872 121.833 114.612 121.833C115.351 121.833 115.943 121.241 115.943 120.501Z" fill="white"/>
<path d="M128.223 120.501C128.223 119.761 127.632 119.169 126.892 119.169C126.152 119.169 125.56 119.761 125.56 120.501C125.56 121.241 126.152 121.833 126.892 121.833C127.632 121.833 128.223 121.241 128.223 120.501Z" fill="white"/>
<path d="M140.504 120.501C140.504 119.761 139.912 119.169 139.172 119.169C138.432 119.169 137.84 119.761 137.84 120.501C137.84 121.241 138.432 121.833 139.172 121.833C139.912 121.833 140.504 121.241 140.504 120.501Z" fill="white"/>
<path d="M152.71 120.501C152.71 119.761 152.118 119.169 151.378 119.169C150.638 119.169 150.046 119.761 150.046 120.501C150.046 121.241 150.638 121.833 151.378 121.833C152.118 121.833 152.71 121.241 152.71 120.501Z" fill="white"/>
<path d="M164.99 120.501C164.99 119.761 164.398 119.169 163.658 119.169C162.919 119.169 162.327 119.761 162.327 120.501C162.327 121.241 162.919 121.833 163.658 121.833C164.398 121.833 164.99 121.241 164.99 120.501Z" fill="white"/>
<path d="M177.196 120.501C177.196 119.761 176.604 119.169 175.865 119.169C175.125 119.169 174.533 119.761 174.533 120.501C174.533 121.241 175.125 121.833 175.865 121.833C176.604 121.833 177.196 121.241 177.196 120.501Z" fill="white"/>
<path d="M189.476 120.501C189.476 119.761 188.884 119.169 188.144 119.169C187.405 119.169 186.813 119.761 186.813 120.501C186.813 121.241 187.405 121.833 188.144 121.833C188.884 121.833 189.476 121.241 189.476 120.501Z" fill="white"/>
<path d="M201.682 120.501C201.682 119.761 201.091 119.169 200.351 119.169C199.611 119.169 199.019 119.761 199.019 120.501C199.019 121.241 199.611 121.833 200.351 121.833C201.091 121.833 201.682 121.241 201.682 120.501Z" fill="white"/>
<path d="M213.963 120.501C213.963 119.761 213.371 119.169 212.631 119.169C211.891 119.169 211.299 119.761 211.299 120.501C211.299 121.241 211.891 121.833 212.631 121.833C213.371 121.833 213.963 121.241 213.963 120.501Z" fill="white"/>
<path d="M115.943 132.707C115.943 131.967 115.351 131.376 114.612 131.376C113.872 131.376 113.28 131.967 113.28 132.707C113.28 133.447 113.872 134.039 114.612 134.039C115.351 134.039 115.943 133.447 115.943 132.707Z" fill="white"/>
<path d="M128.223 132.707C128.223 131.967 127.632 131.376 126.892 131.376C126.152 131.376 125.56 131.967 125.56 132.707C125.56 133.447 126.152 134.039 126.892 134.039C127.632 134.039 128.223 133.447 128.223 132.707Z" fill="white"/>
<path d="M140.504 132.707C140.504 131.967 139.912 131.376 139.172 131.376C138.432 131.376 137.84 131.967 137.84 132.707C137.84 133.447 138.432 134.039 139.172 134.039C139.912 134.039 140.504 133.447 140.504 132.707Z" fill="white"/>
<path d="M152.71 132.707C152.71 131.967 152.118 131.376 151.378 131.376C150.638 131.376 150.046 131.967 150.046 132.707C150.046 133.447 150.638 134.039 151.378 134.039C152.118 134.039 152.71 133.447 152.71 132.707Z" fill="white"/>
<path d="M164.99 132.707C164.99 131.967 164.398 131.376 163.658 131.376C162.919 131.376 162.327 131.967 162.327 132.707C162.327 133.447 162.919 134.039 163.658 134.039C164.398 134.039 164.99 133.447 164.99 132.707Z" fill="white"/>
<path d="M177.196 132.707C177.196 131.967 176.604 131.376 175.865 131.376C175.125 131.376 174.533 131.967 174.533 132.707C174.533 133.447 175.125 134.039 175.865 134.039C176.604 134.039 177.196 133.447 177.196 132.707Z" fill="white"/>
<path d="M189.476 132.707C189.476 131.967 188.884 131.376 188.144 131.376C187.405 131.376 186.813 131.967 186.813 132.707C186.813 133.447 187.405 134.039 188.144 134.039C188.884 134.039 189.476 133.447 189.476 132.707Z" fill="white"/>
<path d="M201.682 132.707C201.682 131.967 201.091 131.376 200.351 131.376C199.611 131.376 199.019 131.967 199.019 132.707C199.019 133.447 199.611 134.039 200.351 134.039C201.091 134.039 201.682 133.447 201.682 132.707Z" fill="white"/>
<path d="M213.963 132.707C213.963 131.967 213.371 131.376 212.631 131.376C211.891 131.376 211.299 131.967 211.299 132.707C211.299 133.447 211.891 134.039 212.631 134.039C213.371 134.039 213.963 133.447 213.963 132.707Z" fill="white"/>
<path d="M115.943 144.987C115.943 144.248 115.351 143.656 114.612 143.656C113.872 143.656 113.28 144.248 113.28 144.987C113.28 145.727 113.872 146.319 114.612 146.319C115.351 146.319 115.943 145.727 115.943 144.987Z" fill="white"/>
<path d="M128.223 144.987C128.223 144.248 127.632 143.656 126.892 143.656C126.152 143.656 125.56 144.248 125.56 144.987C125.56 145.727 126.152 146.319 126.892 146.319C127.632 146.319 128.223 145.727 128.223 144.987Z" fill="white"/>
<path d="M140.504 144.987C140.504 144.248 139.912 143.656 139.172 143.656C138.432 143.656 137.84 144.248 137.84 144.987C137.84 145.727 138.432 146.319 139.172 146.319C139.912 146.319 140.504 145.727 140.504 144.987Z" fill="white"/>
<path d="M152.71 144.987C152.71 144.248 152.118 143.656 151.378 143.656C150.638 143.656 150.046 144.248 150.046 144.987C150.046 145.727 150.638 146.319 151.378 146.319C152.118 146.319 152.71 145.727 152.71 144.987Z" fill="white"/>
<path d="M164.99 144.987C164.99 144.248 164.398 143.656 163.658 143.656C162.919 143.656 162.327 144.248 162.327 144.987C162.327 145.727 162.919 146.319 163.658 146.319C164.398 146.319 164.99 145.727 164.99 144.987Z" fill="white"/>
<path d="M177.196 144.987C177.196 144.248 176.604 143.656 175.865 143.656C175.125 143.656 174.533 144.248 174.533 144.987C174.533 145.727 175.125 146.319 175.865 146.319C176.604 146.319 177.196 145.727 177.196 144.987Z" fill="white"/>
<path d="M189.476 144.987C189.476 144.248 188.884 143.656 188.144 143.656C187.405 143.656 186.813 144.248 186.813 144.987C186.813 145.727 187.405 146.319 188.144 146.319C188.884 146.319 189.476 145.727 189.476 144.987Z" fill="white"/>
<path d="M201.682 144.987C201.682 144.248 201.091 143.656 200.351 143.656C199.611 143.656 199.019 144.248 199.019 144.987C199.019 145.727 199.611 146.319 200.351 146.319C201.091 146.319 201.682 145.727 201.682 144.987Z" fill="white"/>
<path d="M213.963 144.987C213.963 144.248 213.371 143.656 212.631 143.656C211.891 143.656 211.299 144.248 211.299 144.987C211.299 145.727 211.891 146.319 212.631 146.319C213.371 146.319 213.963 145.727 213.963 144.987Z" fill="white"/>
</g>
<mask id="mask1_201_2952" style="mask-type:luminance" maskUnits="userSpaceOnUse" x="59" y="158" width="62" height="62">
<path d="M90.0515 220C106.966 220 120.678 206.288 120.678 189.374C120.678 172.459 106.966 158.747 90.0515 158.747C73.137 158.747 59.425 172.459 59.425 189.374C59.425 206.288 73.137 220 90.0515 220Z" fill="white"/>
</mask>
<g mask="url(#mask1_201_2952)">
<path d="M61.0525 159.561C61.0525 159.117 60.6827 158.747 60.2388 158.747C59.7949 158.747 59.425 159.117 59.425 159.561C59.425 160.005 59.7949 160.375 60.2388 160.375C60.6827 160.375 61.0525 160.005 61.0525 159.561Z" fill="white"/>
<path d="M68.5242 159.561C68.5242 159.117 68.1543 158.747 67.7105 158.747C67.2666 158.747 66.8967 159.117 66.8967 159.561C66.8967 160.005 67.2666 160.375 67.7105 160.375C68.1543 160.375 68.5242 160.005 68.5242 159.561Z" fill="white"/>
<path d="M75.9222 159.561C75.9222 159.117 75.5523 158.747 75.1084 158.747C74.6645 158.747 74.2947 159.117 74.2947 159.561C74.2947 160.005 74.6645 160.375 75.1084 160.375C75.6262 160.375 75.9222 160.005 75.9222 159.561Z" fill="white"/>
<path d="M83.3935 159.561C83.3935 159.117 83.0236 158.747 82.5797 158.747C82.1359 158.747 81.766 159.117 81.766 159.561C81.766 160.005 82.1359 160.375 82.5797 160.375C83.0236 160.375 83.3935 160.005 83.3935 159.561Z" fill="white"/>
<path d="M90.8654 159.561C90.8654 159.117 90.4955 158.747 90.0517 158.747C89.6078 158.747 89.2379 159.117 89.2379 159.561C89.2379 160.005 89.6078 160.375 90.0517 160.375C90.4955 160.375 90.8654 160.005 90.8654 159.561Z" fill="white"/>
<path d="M98.337 159.561C98.337 159.117 97.9671 158.747 97.5232 158.747C97.0794 158.747 96.7095 159.117 96.7095 159.561C96.7095 160.005 97.0794 160.375 97.5232 160.375C97.9671 160.375 98.337 160.005 98.337 159.561Z" fill="white"/>
<path d="M105.735 159.561C105.735 159.117 105.365 158.747 104.921 158.747C104.477 158.747 104.107 159.117 104.107 159.561C104.107 160.005 104.477 160.375 104.921 160.375C105.439 160.375 105.735 160.005 105.735 159.561Z" fill="white"/>
<path d="M113.206 159.561C113.206 159.117 112.836 158.747 112.393 158.747C111.949 158.747 111.579 159.117 111.579 159.561C111.579 160.005 111.949 160.375 112.393 160.375C112.836 160.375 113.206 160.005 113.206 159.561Z" fill="white"/>
<path d="M120.678 159.561C120.678 159.117 120.308 158.747 119.864 158.747C119.421 158.747 119.051 159.117 119.051 159.561C119.051 160.005 119.421 160.375 119.864 160.375C120.308 160.375 120.678 160.005 120.678 159.561Z" fill="white"/>
<path d="M61.0526 167.033C61.0526 166.589 60.6828 166.219 60.2389 166.219C59.7951 166.219 59.4252 166.589 59.4252 167.033C59.4252 167.476 59.7951 167.846 60.2389 167.846C60.6828 167.846 61.0526 167.476 61.0526 167.033Z" fill="white"/>
<path d="M68.5242 167.033C68.5242 166.589 68.1543 166.219 67.7105 166.219C67.2666 166.219 66.8967 166.589 66.8967 167.033C66.8967 167.476 67.2666 167.846 67.7105 167.846C68.1543 167.846 68.5242 167.476 68.5242 167.033Z" fill="white"/>
<path d="M75.9222 167.033C75.9222 166.589 75.5523 166.219 75.1084 166.219C74.6645 166.219 74.2947 166.589 74.2947 167.033C74.2947 167.476 74.6645 167.846 75.1084 167.846C75.6262 167.846 75.9222 167.476 75.9222 167.033Z" fill="white"/>
<path d="M83.3935 167.033C83.3935 166.589 83.0236 166.219 82.5797 166.219C82.1359 166.219 81.766 166.589 81.766 167.033C81.766 167.476 82.1359 167.846 82.5797 167.846C83.0236 167.846 83.3935 167.476 83.3935 167.033Z" fill="white"/>
<path d="M90.8654 167.033C90.8654 166.589 90.4955 166.219 90.0517 166.219C89.6078 166.219 89.2379 166.589 89.2379 167.033C89.2379 167.476 89.6078 167.846 90.0517 167.846C90.4955 167.846 90.8654 167.476 90.8654 167.033Z" fill="white"/>
<path d="M98.337 167.033C98.337 166.589 97.9671 166.219 97.5232 166.219C97.0794 166.219 96.7095 166.589 96.7095 167.033C96.7095 167.476 97.0794 167.846 97.5232 167.846C97.9671 167.846 98.337 167.476 98.337 167.033Z" fill="white"/>
<path d="M105.735 167.033C105.735 166.589 105.365 166.219 104.921 166.219C104.477 166.219 104.107 166.589 104.107 167.033C104.107 167.476 104.477 167.846 104.921 167.846C105.439 167.846 105.735 167.476 105.735 167.033Z" fill="white"/>
<path d="M113.206 167.033C113.206 166.589 112.836 166.219 112.393 166.219C111.949 166.219 111.579 166.589 111.579 167.033C111.579 167.476 111.949 167.846 112.393 167.846C112.836 167.846 113.206 167.476 113.206 167.033Z" fill="white"/>
<path d="M120.678 167.033C120.678 166.589 120.308 166.219 119.864 166.219C119.421 166.219 119.051 166.589 119.051 167.033C119.051 167.476 119.421 167.846 119.864 167.846C120.308 167.846 120.678 167.476 120.678 167.033Z" fill="white"/>
<path d="M60.2389 175.318C60.6883 175.318 61.0526 174.954 61.0526 174.504C61.0526 174.055 60.6883 173.69 60.2389 173.69C59.7895 173.69 59.4252 174.055 59.4252 174.504C59.4252 174.954 59.7895 175.318 60.2389 175.318Z" fill="white"/>
<path d="M68.5242 174.504C68.5242 174.06 68.1543 173.69 67.7105 173.69C67.2666 173.69 66.8967 174.06 66.8967 174.504C66.8967 174.948 67.2666 175.318 67.7105 175.318C68.1543 175.318 68.5242 174.948 68.5242 174.504Z" fill="white"/>
<path d="M75.9222 174.504C75.9222 174.06 75.5523 173.69 75.1084 173.69C74.6645 173.69 74.2947 174.06 74.2947 174.504C74.2947 174.948 74.6645 175.318 75.1084 175.318C75.6262 175.318 75.9222 174.948 75.9222 174.504Z" fill="white"/>
<path d="M82.5797 175.318C83.0292 175.318 83.3935 174.954 83.3935 174.504C83.3935 174.055 83.0292 173.69 82.5797 173.69C82.1303 173.69 81.766 174.055 81.766 174.504C81.766 174.954 82.1303 175.318 82.5797 175.318Z" fill="white"/>
<path d="M90.8654 174.504C90.8654 174.06 90.4955 173.69 90.0517 173.69C89.6078 173.69 89.2379 174.06 89.2379 174.504C89.2379 174.948 89.6078 175.318 90.0517 175.318C90.4955 175.318 90.8654 174.948 90.8654 174.504Z" fill="white"/>
<path d="M98.337 174.504C98.337 174.06 97.9671 173.69 97.5232 173.69C97.0794 173.69 96.7095 174.06 96.7095 174.504C96.7095 174.948 97.0794 175.318 97.5232 175.318C97.9671 175.318 98.337 174.948 98.337 174.504Z" fill="white"/>
<path d="M104.995 175.318C105.444 175.318 105.809 174.954 105.809 174.504C105.809 174.055 105.444 173.69 104.995 173.69C104.545 173.69 104.181 174.055 104.181 174.504C104.181 174.954 104.545 175.318 104.995 175.318Z" fill="white"/>
<path d="M113.206 174.504C113.206 174.06 112.836 173.69 112.393 173.69C111.949 173.69 111.579 174.06 111.579 174.504C111.579 174.948 111.949 175.318 112.393 175.318C112.836 175.318 113.206 174.948 113.206 174.504Z" fill="white"/>
<path d="M119.864 175.318C120.314 175.318 120.678 174.954 120.678 174.504C120.678 174.055 120.314 173.69 119.864 173.69C119.415 173.69 119.051 174.055 119.051 174.504C119.051 174.954 119.415 175.318 119.864 175.318Z" fill="white"/>
<path d="M61.0526 181.976C61.0526 181.532 60.6828 181.162 60.2389 181.162C59.7951 181.162 59.4252 181.532 59.4252 181.976C59.4252 182.42 59.7951 182.79 60.2389 182.79C60.6828 182.79 61.0526 182.42 61.0526 181.976Z" fill="white"/>
<path d="M68.5242 181.976C68.5242 181.532 68.1543 181.162 67.7105 181.162C67.2666 181.162 66.8967 181.532 66.8967 181.976C66.8967 182.42 67.2666 182.79 67.7105 182.79C68.1543 182.79 68.5242 182.42 68.5242 181.976Z" fill="white"/>
<path d="M75.9222 181.976C75.9222 181.532 75.5523 181.162 75.1084 181.162C74.6645 181.162 74.2947 181.532 74.2947 181.976C74.2947 182.42 74.6645 182.79 75.1084 182.79C75.6262 182.79 75.9222 182.42 75.9222 181.976Z" fill="white"/>
<path d="M83.3935 181.976C83.3935 181.532 83.0236 181.162 82.5797 181.162C82.1359 181.162 81.766 181.532 81.766 181.976C81.766 182.42 82.1359 182.79 82.5797 182.79C83.0236 182.79 83.3935 182.42 83.3935 181.976Z" fill="white"/>
<path d="M90.8654 181.976C90.8654 181.532 90.4955 181.162 90.0517 181.162C89.6078 181.162 89.2379 181.532 89.2379 181.976C89.2379 182.42 89.6078 182.79 90.0517 182.79C90.4955 182.79 90.8654 182.42 90.8654 181.976Z" fill="white"/>
<path d="M98.337 181.976C98.337 181.532 97.9671 181.162 97.5232 181.162C97.0794 181.162 96.7095 181.532 96.7095 181.976C96.7095 182.42 97.0794 182.79 97.5232 182.79C97.9671 182.79 98.337 182.42 98.337 181.976Z" fill="white"/>
<path d="M105.735 181.976C105.735 181.532 105.365 181.162 104.921 181.162C104.477 181.162 104.107 181.532 104.107 181.976C104.107 182.42 104.477 182.79 104.921 182.79C105.439 182.79 105.735 182.42 105.735 181.976Z" fill="white"/>
<path d="M113.206 181.976C113.206 181.532 112.836 181.162 112.393 181.162C111.949 181.162 111.579 181.532 111.579 181.976C111.579 182.42 111.949 182.79 112.393 182.79C112.836 182.79 113.206 182.42 113.206 181.976Z" fill="white"/>
<path d="M120.678 181.976C120.678 181.532 120.308 181.162 119.864 181.162C119.421 181.162 119.051 181.532 119.051 181.976C119.051 182.42 119.421 182.79 119.864 182.79C120.308 182.79 120.678 182.42 120.678 181.976Z" fill="white"/>
<path d="M61.0526 189.374C61.0526 188.93 60.6828 188.56 60.2389 188.56C59.7951 188.56 59.4252 188.93 59.4252 189.374C59.4252 189.817 59.7951 190.187 60.2389 190.187C60.6828 190.187 61.0526 189.817 61.0526 189.374Z" fill="white"/>
<path d="M68.5242 189.374C68.5242 188.93 68.1543 188.56 67.7105 188.56C67.2666 188.56 66.8967 188.93 66.8967 189.374C66.8967 189.817 67.2666 190.187 67.7105 190.187C68.1543 190.187 68.5242 189.817 68.5242 189.374Z" fill="white"/>
<path d="M75.9222 189.374C75.9222 188.93 75.5523 188.56 75.1084 188.56C74.6645 188.56 74.2947 188.93 74.2947 189.374C74.2947 189.817 74.6645 190.187 75.1084 190.187C75.6262 190.187 75.9222 189.817 75.9222 189.374Z" fill="white"/>
<path d="M83.3935 189.374C83.3935 188.93 83.0236 188.56 82.5797 188.56C82.1359 188.56 81.766 188.93 81.766 189.374C81.766 189.817 82.1359 190.187 82.5797 190.187C83.0236 190.187 83.3935 189.817 83.3935 189.374Z" fill="white"/>
<path d="M90.8654 189.374C90.8654 188.93 90.4955 188.56 90.0517 188.56C89.6078 188.56 89.2379 188.93 89.2379 189.374C89.2379 189.817 89.6078 190.187 90.0517 190.187C90.4955 190.187 90.8654 189.817 90.8654 189.374Z" fill="white"/>
<path d="M98.337 189.374C98.337 188.93 97.9671 188.56 97.5232 188.56C97.0794 188.56 96.7095 188.93 96.7095 189.374C96.7095 189.817 97.0794 190.187 97.5232 190.187C97.9671 190.187 98.337 189.817 98.337 189.374Z" fill="white"/>
<path d="M105.735 189.374C105.735 188.93 105.365 188.56 104.921 188.56C104.477 188.56 104.107 188.93 104.107 189.374C104.107 189.817 104.477 190.187 104.921 190.187C105.439 190.187 105.735 189.817 105.735 189.374Z" fill="white"/>
<path d="M113.206 189.374C113.206 188.93 112.836 188.56 112.393 188.56C111.949 188.56 111.579 188.93 111.579 189.374C111.579 189.817 111.949 190.187 112.393 190.187C112.836 190.187 113.206 189.817 113.206 189.374Z" fill="white"/>
<path d="M120.678 189.374C120.678 188.93 120.308 188.56 119.864 188.56C119.421 188.56 119.051 188.93 119.051 189.374C119.051 189.817 119.421 190.187 119.864 190.187C120.308 190.187 120.678 189.817 120.678 189.374Z" fill="white"/>
<path d="M60.2389 197.659C60.6883 197.659 61.0526 197.295 61.0526 196.845C61.0526 196.396 60.6883 196.031 60.2389 196.031C59.7895 196.031 59.4252 196.396 59.4252 196.845C59.4252 197.295 59.7895 197.659 60.2389 197.659Z" fill="white"/>
<path d="M68.5242 196.845C68.5242 196.401 68.1543 196.031 67.7105 196.031C67.2666 196.031 66.8967 196.401 66.8967 196.845C66.8967 197.289 67.2666 197.659 67.7105 197.659C68.1543 197.659 68.5242 197.289 68.5242 196.845Z" fill="white"/>
<path d="M75.9222 196.845C75.9222 196.401 75.5523 196.031 75.1084 196.031C74.6645 196.031 74.2947 196.401 74.2947 196.845C74.2947 197.289 74.6645 197.659 75.1084 197.659C75.6262 197.659 75.9222 197.289 75.9222 196.845Z" fill="white"/>
<path d="M82.5797 197.659C83.0292 197.659 83.3935 197.295 83.3935 196.845C83.3935 196.396 83.0292 196.031 82.5797 196.031C82.1303 196.031 81.766 196.396 81.766 196.845C81.766 197.295 82.1303 197.659 82.5797 197.659Z" fill="white"/>
<path d="M90.8654 196.845C90.8654 196.401 90.4955 196.031 90.0517 196.031C89.6078 196.031 89.2379 196.401 89.2379 196.845C89.2379 197.289 89.6078 197.659 90.0517 197.659C90.4955 197.659 90.8654 197.289 90.8654 196.845Z" fill="white"/>
<path d="M98.337 196.845C98.337 196.401 97.9671 196.031 97.5232 196.031C97.0794 196.031 96.7095 196.401 96.7095 196.845C96.7095 197.289 97.0794 197.659 97.5232 197.659C97.9671 197.659 98.337 197.289 98.337 196.845Z" fill="white"/>
<path d="M104.995 197.659C105.444 197.659 105.809 197.295 105.809 196.845C105.809 196.396 105.444 196.031 104.995 196.031C104.545 196.031 104.181 196.396 104.181 196.845C104.181 197.295 104.545 197.659 104.995 197.659Z" fill="white"/>
<path d="M113.206 196.845C113.206 196.401 112.836 196.031 112.393 196.031C111.949 196.031 111.579 196.401 111.579 196.845C111.579 197.289 111.949 197.659 112.393 197.659C112.836 197.659 113.206 197.289 113.206 196.845Z" fill="white"/>
<path d="M119.864 197.659C120.314 197.659 120.678 197.295 120.678 196.845C120.678 196.396 120.314 196.031 119.864 196.031C119.415 196.031 119.051 196.396 119.051 196.845C119.051 197.295 119.415 197.659 119.864 197.659Z" fill="white"/>
<path d="M61.0526 204.317C61.0526 203.873 60.6828 203.503 60.2389 203.503C59.7951 203.503 59.4252 203.873 59.4252 204.317C59.4252 204.761 59.7951 205.131 60.2389 205.131C60.6828 205.131 61.0526 204.761 61.0526 204.317Z" fill="white"/>
<path d="M68.5242 204.317C68.5242 203.873 68.1543 203.503 67.7105 203.503C67.2666 203.503 66.8967 203.873 66.8967 204.317C66.8967 204.761 67.2666 205.131 67.7105 205.131C68.1543 205.131 68.5242 204.761 68.5242 204.317Z" fill="white"/>
<path d="M75.9222 204.317C75.9222 203.873 75.5523 203.503 75.1084 203.503C74.6645 203.503 74.2947 203.873 74.2947 204.317C74.2947 204.761 74.6645 205.131 75.1084 205.131C75.6262 205.131 75.9222 204.761 75.9222 204.317Z" fill="white"/>
<path d="M83.3935 204.317C83.3935 203.873 83.0236 203.503 82.5797 203.503C82.1359 203.503 81.766 203.873 81.766 204.317C81.766 204.761 82.1359 205.131 82.5797 205.131C83.0236 205.131 83.3935 204.761 83.3935 204.317Z" fill="white"/>
<path d="M90.8654 204.317C90.8654 203.873 90.4955 203.503 90.0517 203.503C89.6078 203.503 89.2379 203.873 89.2379 204.317C89.2379 204.761 89.6078 205.131 90.0517 205.131C90.4955 205.131 90.8654 204.761 90.8654 204.317Z" fill="white"/>
<path d="M98.337 204.317C98.337 203.873 97.9671 203.503 97.5232 203.503C97.0794 203.503 96.7095 203.873 96.7095 204.317C96.7095 204.761 97.0794 205.131 97.5232 205.131C97.9671 205.131 98.337 204.761 98.337 204.317Z" fill="white"/>
<path d="M105.735 204.317C105.735 203.873 105.365 203.503 104.921 203.503C104.477 203.503 104.107 203.873 104.107 204.317C104.107 204.761 104.477 205.131 104.921 205.131C105.439 205.131 105.735 204.761 105.735 204.317Z" fill="white"/>
<path d="M113.206 204.317C113.206 203.873 112.836 203.503 112.393 203.503C111.949 203.503 111.579 203.873 111.579 204.317C111.579 204.761 111.949 205.131 112.393 205.131C112.836 205.131 113.206 204.761 113.206 204.317Z" fill="white"/>
<path d="M120.678 204.317C120.678 203.873 120.308 203.503 119.864 203.503C119.421 203.503 119.051 203.873 119.051 204.317C119.051 204.761 119.421 205.131 119.864 205.131C120.308 205.131 120.678 204.761 120.678 204.317Z" fill="white"/>
<path d="M61.0526 211.789C61.0526 211.345 60.6828 210.975 60.2389 210.975C59.7951 210.975 59.4252 211.345 59.4252 211.789C59.4252 212.232 59.7951 212.602 60.2389 212.602C60.6828 212.602 61.0526 212.232 61.0526 211.789Z" fill="white"/>
<path d="M68.5242 211.789C68.5242 211.345 68.1543 210.975 67.7105 210.975C67.2666 210.975 66.8967 211.345 66.8967 211.789C66.8967 212.232 67.2666 212.602 67.7105 212.602C68.1543 212.602 68.5242 212.232 68.5242 211.789Z" fill="white"/>
<path d="M75.9222 211.789C75.9222 211.345 75.5523 210.975 75.1084 210.975C74.6645 210.975 74.2947 211.345 74.2947 211.789C74.2947 212.232 74.6645 212.602 75.1084 212.602C75.6262 212.602 75.9222 212.232 75.9222 211.789Z" fill="white"/>
<path d="M83.3935 211.789C83.3935 211.345 83.0236 210.975 82.5797 210.975C82.1359 210.975 81.766 211.345 81.766 211.789C81.766 212.232 82.1359 212.602 82.5797 212.602C83.0236 212.602 83.3935 212.232 83.3935 211.789Z" fill="white"/>
<path d="M90.8654 211.789C90.8654 211.345 90.4955 210.975 90.0517 210.975C89.6078 210.975 89.2379 211.345 89.2379 211.789C89.2379 212.232 89.6078 212.602 90.0517 212.602C90.4955 212.602 90.8654 212.232 90.8654 211.789Z" fill="white"/>
<path d="M98.337 211.789C98.337 211.345 97.9671 210.975 97.5232 210.975C97.0794 210.975 96.7095 211.345 96.7095 211.789C96.7095 212.232 97.0794 212.602 97.5232 212.602C97.9671 212.602 98.337 212.232 98.337 211.789Z" fill="white"/>
<path d="M105.735 211.789C105.735 211.345 105.365 210.975 104.921 210.975C104.477 210.975 104.107 211.345 104.107 211.789C104.107 212.232 104.477 212.602 104.921 212.602C105.439 212.602 105.735 212.232 105.735 211.789Z" fill="white"/>
<path d="M113.206 211.789C113.206 211.345 112.836 210.975 112.393 210.975C111.949 210.975 111.579 211.345 111.579 211.789C111.579 212.232 111.949 212.602 112.393 212.602C112.836 212.602 113.206 212.232 113.206 211.789Z" fill="white"/>
<path d="M120.678 211.789C120.678 211.345 120.308 210.975 119.864 210.975C119.421 210.975 119.051 211.345 119.051 211.789C119.051 212.232 119.421 212.602 119.864 212.602C120.308 212.602 120.678 212.232 120.678 211.789Z" fill="white"/>
<path d="M60.2389 220C60.6883 220 61.0526 219.636 61.0526 219.186C61.0526 218.737 60.6883 218.372 60.2389 218.372C59.7895 218.372 59.4252 218.737 59.4252 219.186C59.4252 219.636 59.7895 220 60.2389 220Z" fill="white"/>
<path d="M68.5242 219.186C68.5242 218.742 68.1543 218.372 67.7105 218.372C67.2666 218.372 66.8967 218.742 66.8967 219.186C66.8967 219.63 67.2666 220 67.7105 220C68.1543 220 68.5242 219.63 68.5242 219.186Z" fill="white"/>
<path d="M75.9222 219.186C75.9222 218.742 75.5523 218.372 75.1084 218.372C74.6645 218.372 74.2947 218.742 74.2947 219.186C74.2947 219.63 74.6645 220 75.1084 220C75.6262 220 75.9222 219.63 75.9222 219.186Z" fill="white"/>
<path d="M82.5797 220C83.0292 220 83.3935 219.636 83.3935 219.186C83.3935 218.737 83.0292 218.372 82.5797 218.372C82.1303 218.372 81.766 218.737 81.766 219.186C81.766 219.636 82.1303 220 82.5797 220Z" fill="white"/>
<path d="M90.8654 219.186C90.8654 218.742 90.4955 218.372 90.0517 218.372C89.6078 218.372 89.2379 218.742 89.2379 219.186C89.2379 219.63 89.6078 220 90.0517 220C90.4955 220 90.8654 219.63 90.8654 219.186Z" fill="white"/>
<path d="M98.337 219.186C98.337 218.742 97.9671 218.372 97.5232 218.372C97.0794 218.372 96.7095 218.742 96.7095 219.186C96.7095 219.63 97.0794 220 97.5232 220C97.9671 220 98.337 219.63 98.337 219.186Z" fill="white"/>
<path d="M104.995 220C105.444 220 105.809 219.636 105.809 219.186C105.809 218.737 105.444 218.372 104.995 218.372C104.545 218.372 104.181 218.737 104.181 219.186C104.181 219.636 104.545 220 104.995 220Z" fill="white"/>
<path d="M113.206 219.186C113.206 218.742 112.836 218.372 112.393 218.372C111.949 218.372 111.579 218.742 111.579 219.186C111.579 219.63 111.949 220 112.393 220C112.836 220 113.206 219.63 113.206 219.186Z" fill="white"/>
<path d="M119.864 220C120.314 220 120.678 219.636 120.678 219.186C120.678 218.737 120.314 218.372 119.864 218.372C119.415 218.372 119.051 218.737 119.051 219.186C119.051 219.636 119.415 220 119.864 220Z" fill="white"/>
</g>
<mask id="mask2_201_2952" style="mask-type:luminance" maskUnits="userSpaceOnUse" x="10" y="46" width="51" height="51">
<path d="M55.249 87.0141C63.6781 75.972 61.5599 60.1875 50.5179 51.7583C39.4758 43.3292 23.6912 45.4474 15.2621 56.4895C6.83293 67.5315 8.95113 83.3161 19.9932 91.7452C31.0353 100.174 46.8198 98.0562 55.249 87.0141Z" fill="white"/>
</mask>
<g mask="url(#mask2_201_2952)">
<path d="M10.7482 47.9297C11.1159 47.9297 11.414 47.6316 11.414 47.2639C11.414 46.8962 11.1159 46.5981 10.7482 46.5981C10.3805 46.5981 10.0824 46.8962 10.0824 47.2639C10.0824 47.6316 10.3805 47.9297 10.7482 47.9297Z" fill="#EAF9F8"/>
<path d="M17.554 47.2639C17.554 46.894 17.2581 46.5981 16.8882 46.5981C16.5183 46.5981 16.2224 46.894 16.2224 47.2639C16.2224 47.6338 16.5183 47.9297 16.8882 47.9297C17.2581 47.9297 17.554 47.6338 17.554 47.2639Z" fill="#EAF9F8"/>
<path d="M23.0286 47.9297C23.3963 47.9297 23.6944 47.6316 23.6944 47.2639C23.6944 46.8962 23.3963 46.5981 23.0286 46.5981C22.6609 46.5981 22.3628 46.8962 22.3628 47.2639C22.3628 47.6316 22.6609 47.9297 23.0286 47.9297Z" fill="#EAF9F8"/>
<path d="M29.0944 47.9297C29.4621 47.9297 29.7602 47.6316 29.7602 47.2639C29.7602 46.8962 29.4621 46.5981 29.0944 46.5981C28.7267 46.5981 28.4286 46.8962 28.4286 47.2639C28.4286 47.6316 28.7267 47.9297 29.0944 47.9297Z" fill="#EAF9F8"/>
<path d="M35.2348 47.9297C35.6025 47.9297 35.9005 47.6316 35.9005 47.2639C35.9005 46.8962 35.6025 46.5981 35.2348 46.5981C34.8671 46.5981 34.569 46.8962 34.569 47.2639C34.569 47.6316 34.8671 47.9297 35.2348 47.9297Z" fill="#EAF9F8"/>
<path d="M41.3746 47.9297C41.7423 47.9297 42.0403 47.6316 42.0403 47.2639C42.0403 46.8962 41.7423 46.5981 41.3746 46.5981C41.0068 46.5981 40.7087 46.8962 40.7087 47.2639C40.7087 47.6316 41.0068 47.9297 41.3746 47.9297Z" fill="#EAF9F8"/>
<path d="M47.4409 47.9297C47.8086 47.9297 48.1067 47.6316 48.1067 47.2639C48.1067 46.8962 47.8086 46.5981 47.4409 46.5981C47.0732 46.5981 46.7751 46.8962 46.7751 47.2639C46.7751 47.6316 47.0732 47.9297 47.4409 47.9297Z" fill="#EAF9F8"/>
<path d="M53.5807 47.9297C53.9484 47.9297 54.2465 47.6316 54.2465 47.2639C54.2465 46.8962 53.9484 46.5981 53.5807 46.5981C53.213 46.5981 52.9149 46.8962 52.9149 47.2639C52.9149 47.6316 53.213 47.9297 53.5807 47.9297Z" fill="#EAF9F8"/>
<path d="M59.721 47.9297C60.0887 47.9297 60.3868 47.6316 60.3868 47.2639C60.3868 46.8962 60.0887 46.5981 59.721 46.5981C59.3533 46.5981 59.0552 46.8962 59.0552 47.2639C59.0552 47.6316 59.3533 47.9297 59.721 47.9297Z" fill="#EAF9F8"/>
<path d="M10.7482 54.0697C11.1159 54.0697 11.414 53.7717 11.414 53.4039C11.414 53.0362 11.1159 52.7382 10.7482 52.7382C10.3805 52.7382 10.0824 53.0362 10.0824 53.4039C10.0824 53.7717 10.3805 54.0697 10.7482 54.0697Z" fill="#EAF9F8"/>
<path d="M17.554 53.4039C17.554 53.0341 17.2581 52.7382 16.8882 52.7382C16.5183 52.7382 16.2224 53.0341 16.2224 53.4039C16.2224 53.7738 16.5183 54.0697 16.8882 54.0697C17.2581 54.0697 17.554 53.7738 17.554 53.4039Z" fill="#EAF9F8"/>
<path d="M23.0286 54.0697C23.3963 54.0697 23.6944 53.7717 23.6944 53.4039C23.6944 53.0362 23.3963 52.7382 23.0286 52.7382C22.6609 52.7382 22.3628 53.0362 22.3628 53.4039C22.3628 53.7717 22.6609 54.0697 23.0286 54.0697Z" fill="#EAF9F8"/>
<path d="M29.0944 54.0697C29.4621 54.0697 29.7602 53.7717 29.7602 53.4039C29.7602 53.0362 29.4621 52.7382 29.0944 52.7382C28.7267 52.7382 28.4286 53.0362 28.4286 53.4039C28.4286 53.7717 28.7267 54.0697 29.0944 54.0697Z" fill="#EAF9F8"/>
<path d="M35.2348 54.0697C35.6025 54.0697 35.9005 53.7717 35.9005 53.4039C35.9005 53.0362 35.6025 52.7382 35.2348 52.7382C34.8671 52.7382 34.569 53.0362 34.569 53.4039C34.569 53.7717 34.8671 54.0697 35.2348 54.0697Z" fill="#EAF9F8"/>
<path d="M41.3746 54.0697C41.7423 54.0697 42.0403 53.7717 42.0403 53.4039C42.0403 53.0362 41.7423 52.7382 41.3746 52.7382C41.0068 52.7382 40.7087 53.0362 40.7087 53.4039C40.7087 53.7717 41.0068 54.0697 41.3746 54.0697Z" fill="#EAF9F8"/>
<path d="M47.4409 54.0697C47.8086 54.0697 48.1067 53.7717 48.1067 53.4039C48.1067 53.0362 47.8086 52.7382 47.4409 52.7382C47.0732 52.7382 46.7751 53.0362 46.7751 53.4039C46.7751 53.7717 47.0732 54.0697 47.4409 54.0697Z" fill="#EAF9F8"/>
<path d="M53.5807 54.0697C53.9484 54.0697 54.2465 53.7717 54.2465 53.4039C54.2465 53.0362 53.9484 52.7382 53.5807 52.7382C53.213 52.7382 52.9149 53.0362 52.9149 53.4039C52.9149 53.7717 53.213 54.0697 53.5807 54.0697Z" fill="#EAF9F8"/>
<path d="M59.721 54.0697C60.0887 54.0697 60.3868 53.7717 60.3868 53.4039C60.3868 53.0362 60.0887 52.7382 59.721 52.7382C59.3533 52.7382 59.0552 53.0362 59.0552 53.4039C59.0552 53.7717 59.3533 54.0697 59.721 54.0697Z" fill="#EAF9F8"/>
<path d="M10.7482 60.1359C11.1159 60.1359 11.414 59.8378 11.414 59.4701C11.414 59.1024 11.1159 58.8043 10.7482 58.8043C10.3805 58.8043 10.0824 59.1024 10.0824 59.4701C10.0824 59.8378 10.3805 60.1359 10.7482 60.1359Z" fill="#EAF9F8"/>
<path d="M17.554 59.4701C17.554 59.1002 17.2581 58.8043 16.8882 58.8043C16.5183 58.8043 16.2224 59.1002 16.2224 59.4701C16.2224 59.84 16.5183 60.1359 16.8882 60.1359C17.2581 60.1359 17.554 59.84 17.554 59.4701Z" fill="#EAF9F8"/>
<path d="M23.0286 60.1359C23.3963 60.1359 23.6944 59.8378 23.6944 59.4701C23.6944 59.1024 23.3963 58.8043 23.0286 58.8043C22.6609 58.8043 22.3628 59.1024 22.3628 59.4701C22.3628 59.8378 22.6609 60.1359 23.0286 60.1359Z" fill="#EAF9F8"/>
<path d="M29.0944 60.1359C29.4621 60.1359 29.7602 59.8378 29.7602 59.4701C29.7602 59.1024 29.4621 58.8043 29.0944 58.8043C28.7267 58.8043 28.4286 59.1024 28.4286 59.4701C28.4286 59.8378 28.7267 60.1359 29.0944 60.1359Z" fill="#EAF9F8"/>
<path d="M35.2348 60.1359C35.6025 60.1359 35.9005 59.8378 35.9005 59.4701C35.9005 59.1024 35.6025 58.8043 35.2348 58.8043C34.8671 58.8043 34.569 59.1024 34.569 59.4701C34.569 59.8378 34.8671 60.1359 35.2348 60.1359Z" fill="#EAF9F8"/>
<path d="M41.3746 60.1359C41.7423 60.1359 42.0403 59.8378 42.0403 59.4701C42.0403 59.1024 41.7423 58.8043 41.3746 58.8043C41.0068 58.8043 40.7087 59.1024 40.7087 59.4701C40.7087 59.8378 41.0068 60.1359 41.3746 60.1359Z" fill="#EAF9F8"/>
<path d="M47.4409 60.1359C47.8086 60.1359 48.1067 59.8378 48.1067 59.4701C48.1067 59.1024 47.8086 58.8043 47.4409 58.8043C47.0732 58.8043 46.7751 59.1024 46.7751 59.4701C46.7751 59.8378 47.0732 60.1359 47.4409 60.1359Z" fill="#EAF9F8"/>
<path d="M53.5807 60.1359C53.9484 60.1359 54.2465 59.8378 54.2465 59.4701C54.2465 59.1024 53.9484 58.8043 53.5807 58.8043C53.213 58.8043 52.9149 59.1024 52.9149 59.4701C52.9149 59.8378 53.213 60.1359 53.5807 60.1359Z" fill="#EAF9F8"/>
<path d="M59.721 60.1359C60.0887 60.1359 60.3868 59.8378 60.3868 59.4701C60.3868 59.1024 60.0887 58.8043 59.721 58.8043C59.3533 58.8043 59.0552 59.1024 59.0552 59.4701C59.0552 59.8378 59.3533 60.1359 59.721 60.1359Z" fill="#EAF9F8"/>
<path d="M10.7482 66.2759C11.1159 66.2759 11.414 65.9779 11.414 65.6102C11.414 65.2424 11.1159 64.9444 10.7482 64.9444C10.3805 64.9444 10.0824 65.2424 10.0824 65.6102C10.0824 65.9779 10.3805 66.2759 10.7482 66.2759Z" fill="#EAF9F8"/>
<path d="M17.554 65.6102C17.554 65.2403 17.2581 64.9444 16.8882 64.9444C16.5183 64.9444 16.2224 65.2403 16.2224 65.6102C16.2224 65.98 16.5183 66.2759 16.8882 66.2759C17.2581 66.2759 17.554 65.98 17.554 65.6102Z" fill="#EAF9F8"/>
<path d="M23.0286 66.2759C23.3963 66.2759 23.6944 65.9779 23.6944 65.6102C23.6944 65.2424 23.3963 64.9444 23.0286 64.9444C22.6609 64.9444 22.3628 65.2424 22.3628 65.6102C22.3628 65.9779 22.6609 66.2759 23.0286 66.2759Z" fill="#EAF9F8"/>
<path d="M29.0944 66.2759C29.4621 66.2759 29.7602 65.9779 29.7602 65.6102C29.7602 65.2424 29.4621 64.9444 29.0944 64.9444C28.7267 64.9444 28.4286 65.2424 28.4286 65.6102C28.4286 65.9779 28.7267 66.2759 29.0944 66.2759Z" fill="#EAF9F8"/>
<path d="M35.2348 66.2759C35.6025 66.2759 35.9005 65.9779 35.9005 65.6102C35.9005 65.2424 35.6025 64.9444 35.2348 64.9444C34.8671 64.9444 34.569 65.2424 34.569 65.6102C34.569 65.9779 34.8671 66.2759 35.2348 66.2759Z" fill="#EAF9F8"/>
<path d="M41.3746 66.2759C41.7423 66.2759 42.0403 65.9779 42.0403 65.6102C42.0403 65.2424 41.7423 64.9444 41.3746 64.9444C41.0068 64.9444 40.7087 65.2424 40.7087 65.6102C40.7087 65.9779 41.0068 66.2759 41.3746 66.2759Z" fill="#EAF9F8"/>
<path d="M47.4409 66.2759C47.8086 66.2759 48.1067 65.9779 48.1067 65.6102C48.1067 65.2424 47.8086 64.9444 47.4409 64.9444C47.0732 64.9444 46.7751 65.2424 46.7751 65.6102C46.7751 65.9779 47.0732 66.2759 47.4409 66.2759Z" fill="#EAF9F8"/>
<path d="M53.5807 66.2759C53.9484 66.2759 54.2465 65.9779 54.2465 65.6102C54.2465 65.2424 53.9484 64.9444 53.5807 64.9444C53.213 64.9444 52.9149 65.2424 52.9149 65.6102C52.9149 65.9779 53.213 66.2759 53.5807 66.2759Z" fill="#EAF9F8"/>
<path d="M59.721 66.2759C60.0887 66.2759 60.3868 65.9779 60.3868 65.6102C60.3868 65.2424 60.0887 64.9444 59.721 64.9444C59.3533 64.9444 59.0552 65.2424 59.0552 65.6102C59.0552 65.9779 59.3533 66.2759 59.721 66.2759Z" fill="#EAF9F8"/>
<path d="M11.414 71.7502C11.414 71.3804 11.1181 71.0844 10.7482 71.0844C10.3783 71.0844 10.0824 71.3804 10.0824 71.7502C10.0824 72.1201 10.3783 72.416 10.7482 72.416C11.1181 72.416 11.414 72.1201 11.414 71.7502Z" fill="#EAF9F8"/>
<path d="M17.554 71.7502C17.554 71.3804 17.2581 71.0844 16.8882 71.0844C16.5183 71.0844 16.2224 71.3804 16.2224 71.7502C16.2224 72.1201 16.5183 72.416 16.8882 72.416C17.2581 72.416 17.554 72.1201 17.554 71.7502Z" fill="#EAF9F8"/>
<path d="M23.6202 71.7502C23.6202 71.3804 23.3242 71.0844 22.9544 71.0844C22.5845 71.0844 22.2886 71.3804 22.2886 71.7502C22.2886 72.1201 22.5845 72.416 22.9544 72.416C23.3242 72.416 23.6202 72.1201 23.6202 71.7502Z" fill="#EAF9F8"/>
<path d="M29.7602 71.7502C29.7602 71.3804 29.4643 71.0844 29.0944 71.0844C28.7245 71.0844 28.4286 71.3804 28.4286 71.7502C28.4286 72.1201 28.7245 72.416 29.0944 72.416C29.4643 72.416 29.7602 72.1201 29.7602 71.7502Z" fill="#EAF9F8"/>
<path d="M35.9005 71.7502C35.9005 71.3804 35.6046 71.0844 35.2348 71.0844C34.8649 71.0844 34.569 71.3804 34.569 71.7502C34.569 72.1201 34.8649 72.416 35.2348 72.416C35.6046 72.416 35.9005 72.1201 35.9005 71.7502Z" fill="#EAF9F8"/>
<path d="M42.0403 71.7502C42.0403 71.3804 41.7444 71.0844 41.3746 71.0844C41.0047 71.0844 40.7087 71.3804 40.7087 71.7502C40.7087 72.1201 41.0047 72.416 41.3746 72.416C41.7444 72.416 42.0403 72.1201 42.0403 71.7502Z" fill="#EAF9F8"/>
<path d="M48.1067 71.7502C48.1067 71.3804 47.8108 71.0844 47.4409 71.0844C47.071 71.0844 46.7751 71.3804 46.7751 71.7502C46.7751 72.1201 47.071 72.416 47.4409 72.416C47.8108 72.416 48.1067 72.1201 48.1067 71.7502Z" fill="#EAF9F8"/>
<path d="M54.2465 71.7502C54.2465 71.3804 53.9506 71.0844 53.5807 71.0844C53.2108 71.0844 52.9149 71.3804 52.9149 71.7502C52.9149 72.1201 53.2108 72.416 53.5807 72.416C53.9506 72.416 54.2465 72.1201 54.2465 71.7502Z" fill="#EAF9F8"/>
<path d="M60.3868 71.7502C60.3868 71.3804 60.0908 71.0844 59.721 71.0844C59.3511 71.0844 59.0552 71.3804 59.0552 71.7502C59.0552 72.1201 59.3511 72.416 59.721 72.416C60.0908 72.416 60.3868 72.1201 60.3868 71.7502Z" fill="#EAF9F8"/>
<path d="M10.7482 78.5561C11.1159 78.5561 11.414 78.2581 11.414 77.8903C11.414 77.5226 11.1159 77.2245 10.7482 77.2245C10.3805 77.2245 10.0824 77.5226 10.0824 77.8903C10.0824 78.2581 10.3805 78.5561 10.7482 78.5561Z" fill="#EAF9F8"/>
<path d="M17.554 77.8903C17.554 77.5205 17.2581 77.2245 16.8882 77.2245C16.5183 77.2245 16.2224 77.5205 16.2224 77.8903C16.2224 78.2602 16.5183 78.5561 16.8882 78.5561C17.2581 78.5561 17.554 78.2602 17.554 77.8903Z" fill="#EAF9F8"/>
<path d="M23.0286 78.5561C23.3963 78.5561 23.6944 78.2581 23.6944 77.8903C23.6944 77.5226 23.3963 77.2245 23.0286 77.2245C22.6609 77.2245 22.3628 77.5226 22.3628 77.8903C22.3628 78.2581 22.6609 78.5561 23.0286 78.5561Z" fill="#EAF9F8"/>
<path d="M29.0944 78.5561C29.4621 78.5561 29.7602 78.2581 29.7602 77.8903C29.7602 77.5226 29.4621 77.2245 29.0944 77.2245C28.7267 77.2245 28.4286 77.5226 28.4286 77.8903C28.4286 78.2581 28.7267 78.5561 29.0944 78.5561Z" fill="#EAF9F8"/>
<path d="M35.2348 78.5561C35.6025 78.5561 35.9005 78.2581 35.9005 77.8903C35.9005 77.5226 35.6025 77.2245 35.2348 77.2245C34.8671 77.2245 34.569 77.5226 34.569 77.8903C34.569 78.2581 34.8671 78.5561 35.2348 78.5561Z" fill="#EAF9F8"/>
<path d="M41.3746 78.5561C41.7423 78.5561 42.0403 78.2581 42.0403 77.8903C42.0403 77.5226 41.7423 77.2245 41.3746 77.2245C41.0068 77.2245 40.7087 77.5226 40.7087 77.8903C40.7087 78.2581 41.0068 78.5561 41.3746 78.5561Z" fill="#EAF9F8"/>
<path d="M47.4409 78.5561C47.8086 78.5561 48.1067 78.2581 48.1067 77.8903C48.1067 77.5226 47.8086 77.2245 47.4409 77.2245C47.0732 77.2245 46.7751 77.5226 46.7751 77.8903C46.7751 78.2581 47.0732 78.5561 47.4409 78.5561Z" fill="#EAF9F8"/>
<path d="M53.5807 78.5561C53.9484 78.5561 54.2465 78.2581 54.2465 77.8903C54.2465 77.5226 53.9484 77.2245 53.5807 77.2245C53.213 77.2245 52.9149 77.5226 52.9149 77.8903C52.9149 78.2581 53.213 78.5561 53.5807 78.5561Z" fill="#EAF9F8"/>
<path d="M59.721 78.5561C60.0887 78.5561 60.3868 78.2581 60.3868 77.8903C60.3868 77.5226 60.0887 77.2245 59.721 77.2245C59.3533 77.2245 59.0552 77.5226 59.0552 77.8903C59.0552 78.2581 59.3533 78.5561 59.721 78.5561Z" fill="#EAF9F8"/>
<path d="M10.7482 84.6222C11.1159 84.6222 11.414 84.3241 11.414 83.9564C11.414 83.5887 11.1159 83.2906 10.7482 83.2906C10.3805 83.2906 10.0824 83.5887 10.0824 83.9564C10.0824 84.3241 10.3805 84.6222 10.7482 84.6222Z" fill="#EAF9F8"/>
<path d="M17.554 83.9564C17.554 83.5865 17.2581 83.2906 16.8882 83.2906C16.5183 83.2906 16.2224 83.5865 16.2224 83.9564C16.2224 84.3263 16.5183 84.6222 16.8882 84.6222C17.2581 84.6222 17.554 84.3263 17.554 83.9564Z" fill="#EAF9F8"/>
<path d="M23.0286 84.6222C23.3963 84.6222 23.6944 84.3241 23.6944 83.9564C23.6944 83.5887 23.3963 83.2906 23.0286 83.2906C22.6609 83.2906 22.3628 83.5887 22.3628 83.9564C22.3628 84.3241 22.6609 84.6222 23.0286 84.6222Z" fill="#EAF9F8"/>
<path d="M29.0944 84.6222C29.4621 84.6222 29.7602 84.3241 29.7602 83.9564C29.7602 83.5887 29.4621 83.2906 29.0944 83.2906C28.7267 83.2906 28.4286 83.5887 28.4286 83.9564C28.4286 84.3241 28.7267 84.6222 29.0944 84.6222Z" fill="#EAF9F8"/>
<path d="M35.2348 84.6222C35.6025 84.6222 35.9005 84.3241 35.9005 83.9564C35.9005 83.5887 35.6025 83.2906 35.2348 83.2906C34.8671 83.2906 34.569 83.5887 34.569 83.9564C34.569 84.3241 34.8671 84.6222 35.2348 84.6222Z" fill="#EAF9F8"/>
<path d="M41.3746 84.6222C41.7423 84.6222 42.0403 84.3241 42.0403 83.9564C42.0403 83.5887 41.7423 83.2906 41.3746 83.2906C41.0068 83.2906 40.7087 83.5887 40.7087 83.9564C40.7087 84.3241 41.0068 84.6222 41.3746 84.6222Z" fill="#EAF9F8"/>
<path d="M47.4409 84.6222C47.8086 84.6222 48.1067 84.3241 48.1067 83.9564C48.1067 83.5887 47.8086 83.2906 47.4409 83.2906C47.0732 83.2906 46.7751 83.5887 46.7751 83.9564C46.7751 84.3241 47.0732 84.6222 47.4409 84.6222Z" fill="#EAF9F8"/>
<path d="M53.5807 84.6222C53.9484 84.6222 54.2465 84.3241 54.2465 83.9564C54.2465 83.5887 53.9484 83.2906 53.5807 83.2906C53.213 83.2906 52.9149 83.5887 52.9149 83.9564C52.9149 84.3241 53.213 84.6222 53.5807 84.6222Z" fill="#EAF9F8"/>
<path d="M59.721 84.6222C60.0887 84.6222 60.3868 84.3241 60.3868 83.9564C60.3868 83.5887 60.0887 83.2906 59.721 83.2906C59.3533 83.2906 59.0552 83.5887 59.0552 83.9564C59.0552 84.3241 59.3533 84.6222 59.721 84.6222Z" fill="#EAF9F8"/>
<path d="M10.7482 90.7623C11.1159 90.7623 11.414 90.4642 11.414 90.0965C11.414 89.7288 11.1159 89.4307 10.7482 89.4307C10.3805 89.4307 10.0824 89.7288 10.0824 90.0965C10.0824 90.4642 10.3805 90.7623 10.7482 90.7623Z" fill="#EAF9F8"/>
<path d="M17.554 90.0965C17.554 89.7266 17.2581 89.4307 16.8882 89.4307C16.5183 89.4307 16.2224 89.7266 16.2224 90.0965C16.2224 90.4664 16.5183 90.7623 16.8882 90.7623C17.2581 90.7623 17.554 90.4664 17.554 90.0965Z" fill="#EAF9F8"/>
<path d="M23.0286 90.7623C23.3963 90.7623 23.6944 90.4642 23.6944 90.0965C23.6944 89.7288 23.3963 89.4307 23.0286 89.4307C22.6609 89.4307 22.3628 89.7288 22.3628 90.0965C22.3628 90.4642 22.6609 90.7623 23.0286 90.7623Z" fill="#EAF9F8"/>
<path d="M29.0944 90.7623C29.4621 90.7623 29.7602 90.4642 29.7602 90.0965C29.7602 89.7288 29.4621 89.4307 29.0944 89.4307C28.7267 89.4307 28.4286 89.7288 28.4286 90.0965C28.4286 90.4642 28.7267 90.7623 29.0944 90.7623Z" fill="#EAF9F8"/>
<path d="M35.2348 90.7623C35.6025 90.7623 35.9005 90.4642 35.9005 90.0965C35.9005 89.7288 35.6025 89.4307 35.2348 89.4307C34.8671 89.4307 34.569 89.7288 34.569 90.0965C34.569 90.4642 34.8671 90.7623 35.2348 90.7623Z" fill="#EAF9F8"/>
<path d="M41.3746 90.7623C41.7423 90.7623 42.0403 90.4642 42.0403 90.0965C42.0403 89.7288 41.7423 89.4307 41.3746 89.4307C41.0068 89.4307 40.7087 89.7288 40.7087 90.0965C40.7087 90.4642 41.0068 90.7623 41.3746 90.7623Z" fill="#EAF9F8"/>
<path d="M47.4409 90.7623C47.8086 90.7623 48.1067 90.4642 48.1067 90.0965C48.1067 89.7288 47.8086 89.4307 47.4409 89.4307C47.0732 89.4307 46.7751 89.7288 46.7751 90.0965C46.7751 90.4642 47.0732 90.7623 47.4409 90.7623Z" fill="#EAF9F8"/>
<path d="M53.5807 90.7623C53.9484 90.7623 54.2465 90.4642 54.2465 90.0965C54.2465 89.7288 53.9484 89.4307 53.5807 89.4307C53.213 89.4307 52.9149 89.7288 52.9149 90.0965C52.9149 90.4642 53.213 90.7623 53.5807 90.7623Z" fill="#EAF9F8"/>
<path d="M59.721 90.7623C60.0887 90.7623 60.3868 90.4642 60.3868 90.0965C60.3868 89.7288 60.0887 89.4307 59.721 89.4307C59.3533 89.4307 59.0552 89.7288 59.0552 90.0965C59.0552 90.4642 59.3533 90.7623 59.721 90.7623Z" fill="#EAF9F8"/>
<path d="M10.7482 96.9024C11.1159 96.9024 11.414 96.6043 11.414 96.2366C11.414 95.8689 11.1159 95.5708 10.7482 95.5708C10.3805 95.5708 10.0824 95.8689 10.0824 96.2366C10.0824 96.6043 10.3805 96.9024 10.7482 96.9024Z" fill="#EAF9F8"/>
<path d="M17.554 96.2366C17.554 95.8667 17.2581 95.5708 16.8882 95.5708C16.5183 95.5708 16.2224 95.8667 16.2224 96.2366C16.2224 96.6065 16.5183 96.9024 16.8882 96.9024C17.2581 96.9024 17.554 96.6065 17.554 96.2366Z" fill="#EAF9F8"/>
<path d="M23.0286 96.9024C23.3963 96.9024 23.6944 96.6043 23.6944 96.2366C23.6944 95.8689 23.3963 95.5708 23.0286 95.5708C22.6609 95.5708 22.3628 95.8689 22.3628 96.2366C22.3628 96.6043 22.6609 96.9024 23.0286 96.9024Z" fill="#EAF9F8"/>
<path d="M29.0944 96.9024C29.4621 96.9024 29.7602 96.6043 29.7602 96.2366C29.7602 95.8689 29.4621 95.5708 29.0944 95.5708C28.7267 95.5708 28.4286 95.8689 28.4286 96.2366C28.4286 96.6043 28.7267 96.9024 29.0944 96.9024Z" fill="#EAF9F8"/>
<path d="M35.2348 96.9024C35.6025 96.9024 35.9005 96.6043 35.9005 96.2366C35.9005 95.8689 35.6025 95.5708 35.2348 95.5708C34.8671 95.5708 34.569 95.8689 34.569 96.2366C34.569 96.6043 34.8671 96.9024 35.2348 96.9024Z" fill="#EAF9F8"/>
<path d="M41.3746 96.9024C41.7423 96.9024 42.0403 96.6043 42.0403 96.2366C42.0403 95.8689 41.7423 95.5708 41.3746 95.5708C41.0068 95.5708 40.7087 95.8689 40.7087 96.2366C40.7087 96.6043 41.0068 96.9024 41.3746 96.9024Z" fill="#EAF9F8"/>
<path d="M47.4409 96.9024C47.8086 96.9024 48.1067 96.6043 48.1067 96.2366C48.1067 95.8689 47.8086 95.5708 47.4409 95.5708C47.0732 95.5708 46.7751 95.8689 46.7751 96.2366C46.7751 96.6043 47.0732 96.9024 47.4409 96.9024Z" fill="#EAF9F8"/>
<path d="M53.5807 96.9024C53.9484 96.9024 54.2465 96.6043 54.2465 96.2366C54.2465 95.8689 53.9484 95.5708 53.5807 95.5708C53.213 95.5708 52.9149 95.8689 52.9149 96.2366C52.9149 96.6043 53.213 96.9024 53.5807 96.9024Z" fill="#EAF9F8"/>
<path d="M59.721 96.9024C60.0887 96.9024 60.3868 96.6043 60.3868 96.2366C60.3868 95.8689 60.0887 95.5708 59.721 95.5708C59.3533 95.5708 59.0552 95.8689 59.0552 96.2366C59.0552 96.6043 59.3533 96.9024 59.721 96.9024Z" fill="#EAF9F8"/>
</g>
<path d="M168.467 125.827H80.3608C79.2511 125.827 78.2894 125.014 78.0675 123.904L67.3408 59.1001C67.1929 58.4344 67.4148 57.7686 67.8587 57.2507C68.3025 56.7329 68.9683 56.437 69.6341 56.437H179.194C179.86 56.437 180.526 56.7329 180.969 57.2507C181.413 57.7686 181.561 58.4344 181.487 59.1001L170.761 123.904C170.539 125.014 169.577 125.827 168.467 125.827ZM82.3581 121.167H166.544L176.531 61.0235H72.3713L82.3581 121.167Z" fill="#272343"/>
<path d="M150.713 124.274H98.1151C97.7452 124.274 97.3753 123.978 97.3753 123.608L90.9393 58.8042C90.9393 58.5823 91.0133 58.3604 91.1613 58.2124C91.3092 58.0645 91.5311 57.9905 91.7531 57.9905H157.223C157.445 57.9905 157.666 58.0645 157.814 58.2124C157.962 58.3604 158.036 58.5823 158.036 58.8042L151.6 123.608C151.452 123.978 151.157 124.274 150.713 124.274ZM98.7809 122.72H150.047L156.335 59.47H92.5668L98.7809 122.72Z" fill="#272343"/>
<path d="M133.402 124.274H115.352C114.908 124.274 114.612 123.978 114.612 123.534L112.393 58.7303C112.393 58.5083 112.467 58.2864 112.615 58.1385C112.763 57.9905 112.984 57.9165 113.132 57.9165H135.547C135.769 57.9165 135.991 57.9905 136.065 58.1385C136.213 58.2864 136.287 58.5083 136.287 58.7303L134.068 123.534C134.216 123.978 133.846 124.274 133.402 124.274ZM116.165 122.72H132.736L134.882 59.47H114.02L116.165 122.72Z" fill="#272343"/>
<path d="M165.73 162.594H89.5338C82.58 162.594 76.9578 156.972 76.9578 150.018C76.9578 143.064 82.58 137.442 89.5338 137.442H163.807L180.378 37.8688C180.599 36.7591 181.561 35.9454 182.671 35.9454H190.586C191.844 35.9454 192.88 36.9811 192.88 38.2387C192.88 39.4963 191.844 40.532 190.586 40.532H184.668L168.023 140.031C167.801 141.141 166.84 141.954 165.73 141.954H89.5338C85.1692 141.954 81.5443 145.505 81.5443 149.944C81.5443 154.382 85.0952 157.933 89.5338 157.933H165.73C166.988 157.933 168.023 158.969 168.023 160.227C168.023 161.558 166.988 162.594 165.73 162.594Z" fill="#272343"/>
<path d="M101.444 174.282C104.713 174.282 107.362 171.633 107.362 168.364C107.362 165.096 104.713 162.446 101.444 162.446C98.1755 162.446 95.5259 165.096 95.5259 168.364C95.5259 171.633 98.1755 174.282 101.444 174.282Z" fill="#534F7F"/>
<path d="M104.329 168.364C104.329 166.811 103.072 165.479 101.444 165.479C99.8907 165.479 98.5591 166.737 98.5591 168.364C98.5591 169.992 99.8167 171.249 101.444 171.249C103.072 171.249 104.329 169.918 104.329 168.364Z" fill="#272343"/>
<path d="M150.047 174.282C153.316 174.282 155.965 171.633 155.965 168.364C155.965 165.096 153.316 162.446 150.047 162.446C146.779 162.446 144.129 165.096 144.129 168.364C144.129 171.633 146.779 174.282 150.047 174.282Z" fill="#534F7F"/>
<path d="M150.047 171.249C151.64 171.249 152.932 169.957 152.932 168.364C152.932 166.771 151.64 165.479 150.047 165.479C148.454 165.479 147.162 166.771 147.162 168.364C147.162 169.957 148.454 171.249 150.047 171.249Z" fill="#272343"/>
<path d="M176.161 79.7397H72.7411C72.2973 79.7397 72.0013 79.3698 72.0013 78.9999C72.0013 78.5561 72.3712 78.2602 72.7411 78.2602H176.161C176.605 78.2602 176.901 78.63 176.901 78.9999C176.901 79.3698 176.531 79.7397 176.161 79.7397Z" fill="#272343"/>
<path d="M172.092 102.229H76.6619C76.218 102.229 75.9221 101.859 75.9221 101.489C75.9221 101.045 76.292 100.749 76.6619 100.749H172.092C172.536 100.749 172.832 101.119 172.832 101.489C172.906 101.859 172.536 102.229 172.092 102.229Z" fill="#272343"/>
<path d="M72.1491 132.115L53.063 113.029L26.9492 119.983L19.9214 146.097L39.0814 165.257L65.1953 158.229L72.1491 132.115Z" fill="#FFF399"/>
<path d="M39.0814 165.257L46.0352 139.143L72.1491 132.115L65.1953 158.229L39.0814 165.257Z" fill="#FFD13E"/>
<path d="M42.6323 162.298L43.2242 159.857L52.9891 157.194L52.3233 159.709L42.6323 162.298Z" fill="#272343"/>
<path d="M52.9893 159.561L53.655 157.046L57.206 156.084L56.4662 158.599L52.9893 159.561Z" fill="white"/>
<path opacity="0.1" d="M51.1397 137.738L46.0353 139.069L39.0074 165.183L65.1213 158.155L67.5625 148.982C63.4938 154.382 56.0961 154.9 52.7672 152.163C49.2902 149.204 49.4382 142.62 51.1397 137.738Z" fill="#FF9100"/>
<path d="M26.9492 119.983L46.0352 139.143L39.0814 165.257L19.9214 146.097L26.9492 119.983Z" fill="#FFE05F"/>
<path d="M34.7168 127.825L38.2677 131.302L35.7524 140.845L32.2015 137.368L34.7168 127.825Z" fill="#272343"/>
<path d="M34.7169 127.825L38.2678 131.302L63.6419 123.534L60.091 120.057L34.7169 127.825Z" fill="#534F7F"/>
<path opacity="0.1" d="M40.8568 133.965C40.8568 133.965 38.8595 142.546 33.4592 142.62C29.1685 142.694 23.9901 138.181 23.9901 131.006L19.9214 146.171L39.0074 165.257L46.0352 139.143L40.8568 133.965Z" fill="#FF9100"/>
<path opacity="0.1" d="M31.4618 118.8C31.4618 118.8 38.4896 139.217 70.5956 130.562L72.1491 132.115L46.0353 139.143L26.9492 119.983L31.4618 118.8Z" fill="#FF9100"/>
<path d="M30.2042 112.068C29.9822 112.142 29.8343 112.29 29.6863 112.438L28.4287 114.657C28.2068 115.027 28.3548 115.545 28.7246 115.766C29.0945 115.988 29.6124 115.84 29.8343 115.471L31.0919 113.251C31.0919 113.177 31.1659 113.177 31.1659 113.103C31.2398 112.955 31.2398 112.807 31.1659 112.585C31.0919 112.364 30.9439 112.216 30.796 112.068C30.648 111.994 30.4261 111.994 30.2042 112.068Z" fill="#BAE8E8"/>
<path d="M17.1844 115.914C16.9624 116.284 17.1104 116.802 17.4803 117.024L19.6996 118.282C20.0694 118.504 20.5873 118.356 20.8092 117.986C20.8092 117.912 20.8832 117.912 20.8832 117.838C21.0312 117.468 20.8832 117.024 20.5133 116.876L18.294 115.619C17.9241 115.397 17.4063 115.471 17.1844 115.914Z" fill="#BAE8E8"/>
<path d="M16.8143 122.498C16.3705 122.646 16.1485 123.09 16.2225 123.534C16.2965 123.756 16.4444 123.904 16.5924 124.052C16.8143 124.126 17.0363 124.2 17.1842 124.126L19.6994 123.46C19.9953 123.386 20.1433 123.164 20.2173 122.942C20.2912 122.794 20.2912 122.646 20.2173 122.424C20.1433 122.202 19.9953 122.055 19.8474 121.907C19.6254 121.833 19.4035 121.759 19.2556 121.833L16.8143 122.498Z" fill="#BAE8E8"/>
<path d="M24.2119 111.772C24.138 111.55 23.99 111.402 23.8421 111.254C23.6201 111.18 23.3982 111.106 23.2503 111.18C22.8064 111.328 22.5845 111.772 22.6584 112.216L23.3242 114.731C23.3982 114.953 23.5461 115.101 23.6941 115.249C23.916 115.323 24.138 115.397 24.2859 115.323C24.5818 115.249 24.7298 115.027 24.8038 114.805C24.8777 114.657 24.8777 114.509 24.8038 114.287L24.2119 111.772Z" fill="#BAE8E8"/>
<path d="M181.191 105.188L200.351 86.1017L226.465 93.0556L233.493 119.169L214.333 138.329L188.219 131.302L181.191 105.188Z" fill="#FFF399"/>
<path d="M214.333 138.329L207.305 112.216L181.191 105.188L188.219 131.302L214.333 138.329Z" fill="#FFD13E"/>
<path d="M210.782 135.37L210.116 132.929L200.351 130.266L201.017 132.781L210.782 135.37Z" fill="#272343"/>
<path d="M200.351 132.633L199.686 130.118L196.209 129.156L196.874 131.672L200.351 132.633Z" fill="white"/>
<path opacity="0.1" d="M202.275 110.81L207.379 112.142L214.407 138.256L188.293 131.228L185.852 122.055C189.92 127.455 197.318 127.973 200.647 125.236C204.05 122.276 203.976 115.693 202.275 110.81Z" fill="#FF9100"/>
<path d="M226.465 93.0556L207.305 112.216L214.333 138.329L233.493 119.169L226.465 93.0556Z" fill="#FFE05F"/>
<path d="M218.623 100.897L215.147 104.374L217.662 113.917L221.213 110.366L218.623 100.897Z" fill="#272343"/>
<path d="M218.623 100.897L215.147 104.374L189.772 96.6065L193.323 93.1295L218.623 100.897Z" fill="#534F7F"/>
<path opacity="0.1" d="M212.557 106.963C212.557 106.963 214.555 115.545 219.955 115.619C224.246 115.693 229.424 111.18 229.424 104.004L233.493 119.169L214.407 138.255L207.379 112.142L212.557 106.963Z" fill="#FF9100"/>
<path opacity="0.1" d="M221.878 91.8719C221.878 91.8719 214.851 112.29 182.745 103.634L181.191 105.188L207.305 112.216L226.391 93.1296L221.878 91.8719Z" fill="#FF9100"/>
<path d="M235.342 94.7571C235.194 94.6091 235.046 94.4611 234.824 94.3872L232.309 93.8693C231.865 93.7954 231.422 94.0913 231.348 94.5351C231.274 94.979 231.57 95.4228 232.013 95.4968L234.529 96.0147C234.603 96.0147 234.603 96.0147 234.677 96.0147C234.824 96.0147 234.972 95.9407 235.12 95.8667C235.268 95.7188 235.416 95.5708 235.49 95.3489C235.49 95.1269 235.49 94.905 235.342 94.7571Z" fill="white"/>
<path d="M227.723 83.5125C227.279 83.4386 226.835 83.7345 226.761 84.1783L226.243 86.6936C226.169 87.1374 226.465 87.5813 226.909 87.6553C226.983 87.6553 226.983 87.6553 227.057 87.6553C227.427 87.6553 227.797 87.4333 227.871 86.9895L228.388 84.4743C228.462 84.0304 228.166 83.5865 227.723 83.5125Z" fill="white"/>
<path d="M221.361 85.14C221.139 84.7701 220.621 84.6222 220.251 84.9181C220.103 85.0661 219.955 85.214 219.881 85.4359C219.807 85.6579 219.881 85.8798 220.029 86.0278L221.435 88.1731C221.583 88.395 221.805 88.543 222.101 88.543C222.248 88.543 222.396 88.469 222.544 88.395C222.692 88.2471 222.84 88.0991 222.914 87.8772C222.988 87.6552 222.914 87.4333 222.766 87.2854L221.361 85.14Z" fill="white"/>
<path d="M233.789 88.9869C233.937 88.8389 234.085 88.6909 234.159 88.469C234.232 88.2471 234.159 88.0252 234.011 87.8772C233.789 87.5073 233.271 87.3594 232.901 87.6553L230.756 89.0608C230.608 89.2088 230.46 89.3567 230.386 89.5787C230.312 89.8006 230.386 90.0225 230.534 90.1705C230.682 90.3924 230.904 90.5404 231.199 90.5404C231.347 90.5404 231.495 90.4664 231.643 90.3924L233.789 88.9869Z" fill="white"/>
<path d="M207.231 132.411C207.601 130.488 206.713 128.564 204.938 127.677L170.316 108.591C168.837 107.777 166.988 107.851 165.582 108.813C164.176 109.774 163.437 111.402 163.585 113.103L168.245 152.311C168.467 154.235 169.873 155.788 171.796 156.232C173.719 156.676 175.643 155.788 176.678 154.161L181.561 146.023L192.805 162.742C193.397 163.63 194.285 164.221 195.321 164.443C195.543 164.517 195.839 164.517 196.06 164.517C196.8 164.517 197.614 164.295 198.28 163.851L204.272 159.857C205.16 159.265 205.751 158.377 205.973 157.342C206.195 156.306 205.973 155.27 205.382 154.382L194.137 137.664L203.532 136.184C205.456 135.814 206.935 134.409 207.231 132.411Z" fill="white"/>
<path d="M204.05 129.304L169.429 110.218C167.506 109.183 165.212 110.736 165.434 112.881L170.095 152.089C170.391 154.604 173.72 155.344 175.051 153.125L181.413 142.472L194.285 161.632C194.951 162.594 196.209 162.816 197.17 162.224L203.163 158.229C204.124 157.563 204.346 156.306 203.754 155.344L190.956 136.258L203.237 134.335C205.752 133.891 206.344 130.488 204.05 129.304Z" fill="#BAE8E8"/>
<path d="M189.699 123.756L176.679 116.58C176.383 116.432 176.087 116.506 175.939 116.802C175.791 117.098 175.865 117.394 176.161 117.542L189.181 124.718C189.477 124.866 189.773 124.792 189.921 124.496C190.069 124.274 189.995 123.978 189.699 123.756Z" fill="white"/>
<path d="M174.533 115.397L171.278 113.547C170.982 113.399 170.686 113.473 170.539 113.769C170.391 114.065 170.465 114.361 170.76 114.509L174.015 116.358C174.311 116.506 174.607 116.432 174.755 116.136C174.903 115.84 174.755 115.545 174.533 115.397Z" fill="white"/>
<path d="M51.2136 85.4359C51.2136 87.7292 51.5095 90.0225 52.0274 92.0939H82.5798C83.0977 90.0225 83.3936 87.7292 83.3936 85.4359C83.3936 76.7806 74.5903 67.6075 70.0038 63.4648C68.7462 62.2812 68.7462 60.2838 70.0038 59.1002C74.5903 54.9574 83.3936 45.7843 83.3936 37.129C83.3936 34.6138 83.0977 32.2465 82.4319 29.9532H52.1753C51.5835 32.1726 51.2136 34.6138 51.2136 37.129C51.2136 45.7843 60.0169 54.9574 64.6035 59.1002C65.8611 60.2838 65.8611 62.2812 64.6035 63.4648C60.0169 67.6075 51.2136 76.7806 51.2136 85.4359Z" fill="#BAE8E8"/>
<path d="M81.3222 31.4328C81.7661 33.2822 81.914 35.2056 81.914 37.129C81.914 45.4144 72.8888 54.5136 69.042 57.9905C68.1543 58.8043 67.5625 59.9879 67.5625 61.2455C67.5625 62.5031 68.0803 63.6867 69.042 64.5005C72.8888 68.0514 81.914 77.1505 81.914 85.362C81.914 87.1374 81.766 88.8389 81.3962 90.5404H53.211C52.8411 88.8389 52.6931 87.1374 52.6931 85.362C52.6931 77.0766 61.7183 67.9774 65.5651 64.5005C66.4528 63.6867 67.0446 62.5031 67.0446 61.2455C67.0446 59.9879 66.5268 58.8043 65.5651 57.9905C61.7183 54.4396 52.6931 45.3405 52.6931 37.129C52.6931 35.2056 52.915 33.2822 53.2849 31.4328H81.3222Z" fill="#EAF9F8"/>
<path d="M83.4676 25.8845H51.1397C50.3999 25.8845 49.8821 26.4763 49.8821 27.1421C49.8821 27.8819 50.4739 28.3997 51.1397 28.3997H83.4676C84.2074 28.3997 84.7252 27.8079 84.7252 27.1421C84.7252 26.4763 84.2074 25.8845 83.4676 25.8845Z" fill="#272343"/>
<path d="M83.3936 28.4737H51.2136V29.0655C51.2136 29.5834 51.6575 29.9533 52.1014 29.9533H82.3579C82.8758 29.9533 83.3196 29.5094 83.3196 28.9916V28.4737H83.3936Z" fill="#534F7F"/>
<path d="M51.1397 96.1626H83.4676C84.2074 96.1626 84.7252 95.5708 84.7252 94.905C84.7252 94.1652 84.1334 93.6474 83.4676 93.6474H51.1397C50.3999 93.6474 49.8821 94.2392 49.8821 94.905C49.8821 95.5708 50.4739 96.1626 51.1397 96.1626Z" fill="#272343"/>
<path d="M51.2136 93.5734H83.3196V92.9816C83.3196 92.4638 82.8758 92.0939 82.4319 92.0939H52.1753C51.6575 92.0939 51.2136 92.5377 51.2136 93.0556V93.5734Z" fill="#534F7F"/>
<path d="M67.5627 79.8877V61.2455C67.5627 59.9879 68.0805 58.8042 69.0422 57.9905C71.8534 55.4013 77.4756 49.7791 80.2867 43.713C76.7358 43.713 72.2233 43.2691 66.527 42.0855C62.0884 41.1977 57.5018 42.4553 54.3948 43.713C57.2059 49.7791 62.7542 55.3273 65.6393 57.9165C66.527 58.7303 67.1188 59.9139 67.1188 61.1715V79.8137L53.1372 89.2088C53.2852 90.2444 53.4331 91.2801 53.5811 92.0199H81.1745C81.3224 91.2801 81.4704 90.2444 81.6183 89.2088L67.5627 79.8877Z" fill="#FFE05F"/>
<path d="M54.3945 91.2801C54.5988 91.2801 54.7644 91.1145 54.7644 90.9102C54.7644 90.7059 54.5988 90.5403 54.3945 90.5403C54.1903 90.5403 54.0247 90.7059 54.0247 90.9102C54.0247 91.1145 54.1903 91.2801 54.3945 91.2801Z" fill="#FFF9C5"/>
<path d="M57.2796 91.2801C57.4838 91.2801 57.6494 91.1145 57.6494 90.9102C57.6494 90.7059 57.4838 90.5403 57.2796 90.5403C57.0753 90.5403 56.9097 90.7059 56.9097 90.9102C56.9097 91.1145 57.0753 91.2801 57.2796 91.2801Z" fill="#FFF9C5"/>
<path d="M60.1648 91.2801C60.3691 91.2801 60.5347 91.1145 60.5347 90.9102C60.5347 90.7059 60.3691 90.5403 60.1648 90.5403C59.9605 90.5403 59.7949 90.7059 59.7949 90.9102C59.7949 91.1145 59.9605 91.2801 60.1648 91.2801Z" fill="#FFF9C5"/>
<path d="M63.0498 91.2801C63.2541 91.2801 63.4197 91.1145 63.4197 90.9102C63.4197 90.7059 63.2541 90.5403 63.0498 90.5403C62.8455 90.5403 62.6799 90.7059 62.6799 90.9102C62.6799 91.1145 62.8455 91.2801 63.0498 91.2801Z" fill="#FFF9C5"/>
<path d="M65.8611 91.2801C66.0654 91.2801 66.231 91.1145 66.231 90.9102C66.231 90.7059 66.0654 90.5403 65.8611 90.5403C65.6568 90.5403 65.4912 90.7059 65.4912 90.9102C65.4912 91.1145 65.6568 91.2801 65.8611 91.2801Z" fill="#FFF9C5"/>
<path d="M68.7461 91.2801C68.9504 91.2801 69.116 91.1145 69.116 90.9102C69.116 90.7059 68.9504 90.5403 68.7461 90.5403C68.5418 90.5403 68.3762 90.7059 68.3762 90.9102C68.3762 91.1145 68.5418 91.2801 68.7461 91.2801Z" fill="#FFF9C5"/>
<path d="M71.6314 91.2801C71.8356 91.2801 72.0012 91.1145 72.0012 90.9102C72.0012 90.7059 71.8356 90.5403 71.6314 90.5403C71.4271 90.5403 71.2615 90.7059 71.2615 90.9102C71.2615 91.1145 71.4271 91.2801 71.6314 91.2801Z" fill="#FFF9C5"/>
<path d="M74.5164 91.2801C74.7207 91.2801 74.8863 91.1145 74.8863 90.9102C74.8863 90.7059 74.7207 90.5403 74.5164 90.5403C74.3121 90.5403 74.1465 90.7059 74.1465 90.9102C74.1465 91.1145 74.3121 91.2801 74.5164 91.2801Z" fill="#FFF9C5"/>
<path d="M77.3274 91.2801C77.5317 91.2801 77.6973 91.1145 77.6973 90.9102C77.6973 90.7059 77.5317 90.5403 77.3274 90.5403C77.1231 90.5403 76.9575 90.7059 76.9575 90.9102C76.9575 91.1145 77.1231 91.2801 77.3274 91.2801Z" fill="#FFF9C5"/>
<path d="M80.2124 91.2801C80.4167 91.2801 80.5823 91.1145 80.5823 90.9102C80.5823 90.7059 80.4167 90.5403 80.2124 90.5403C80.0081 90.5403 79.8425 90.7059 79.8425 90.9102C79.8425 91.1145 80.0081 91.2801 80.2124 91.2801Z" fill="#FFF9C5"/>
<path d="M55.874 89.1348C56.0783 89.1348 56.2439 88.9692 56.2439 88.7649C56.2439 88.5606 56.0783 88.395 55.874 88.395C55.6698 88.395 55.5042 88.5606 55.5042 88.7649C55.5042 88.9692 55.6698 89.1348 55.874 89.1348Z" fill="#FFF9C5"/>
<path d="M58.7593 89.1348C58.9636 89.1348 59.1292 88.9692 59.1292 88.7649C59.1292 88.5606 58.9636 88.395 58.7593 88.395C58.555 88.395 58.3894 88.5606 58.3894 88.7649C58.3894 88.9692 58.555 89.1348 58.7593 89.1348Z" fill="#FFF9C5"/>
<path d="M61.5703 89.1348C61.7746 89.1348 61.9402 88.9692 61.9402 88.7649C61.9402 88.5606 61.7746 88.395 61.5703 88.395C61.366 88.395 61.2004 88.5606 61.2004 88.7649C61.2004 88.9692 61.366 89.1348 61.5703 89.1348Z" fill="#FFF9C5"/>
<path d="M64.4556 89.1348C64.6599 89.1348 64.8255 88.9692 64.8255 88.7649C64.8255 88.5606 64.6599 88.395 64.4556 88.395C64.2513 88.395 64.0857 88.5606 64.0857 88.7649C64.0857 88.9692 64.2513 89.1348 64.4556 89.1348Z" fill="#FFF9C5"/>
<path d="M67.3406 89.1348C67.5449 89.1348 67.7105 88.9692 67.7105 88.7649C67.7105 88.5606 67.5449 88.395 67.3406 88.395C67.1363 88.395 66.9707 88.5606 66.9707 88.7649C66.9707 88.9692 67.1363 89.1348 67.3406 89.1348Z" fill="#FFF9C5"/>
<path d="M70.2256 89.1348C70.4299 89.1348 70.5955 88.9692 70.5955 88.7649C70.5955 88.5606 70.4299 88.395 70.2256 88.395C70.0213 88.395 69.8557 88.5606 69.8557 88.7649C69.8557 88.9692 70.0213 89.1348 70.2256 89.1348Z" fill="#FFF9C5"/>
<path d="M73.0369 89.1348C73.2412 89.1348 73.4068 88.9692 73.4068 88.7649C73.4068 88.5606 73.2412 88.395 73.0369 88.395C72.8326 88.395 72.667 88.5606 72.667 88.7649C72.667 88.9692 72.8326 89.1348 73.0369 89.1348Z" fill="#FFF9C5"/>
<path d="M75.9219 89.1348C76.1262 89.1348 76.2918 88.9692 76.2918 88.7649C76.2918 88.5606 76.1262 88.395 75.9219 88.395C75.7176 88.395 75.552 88.5606 75.552 88.7649C75.552 88.9692 75.7176 89.1348 75.9219 89.1348Z" fill="#FFF9C5"/>
<path d="M78.8071 89.1348C79.0114 89.1348 79.177 88.9692 79.177 88.7649C79.177 88.5606 79.0114 88.395 78.8071 88.395C78.6029 88.395 78.4373 88.5606 78.4373 88.7649C78.4373 88.9692 78.6029 89.1348 78.8071 89.1348Z" fill="#FFF9C5"/>
<path d="M58.0194 86.9895C58.2237 86.9895 58.3893 86.8239 58.3893 86.6196C58.3893 86.4153 58.2237 86.2497 58.0194 86.2497C57.8151 86.2497 57.6495 86.4153 57.6495 86.6196C57.6495 86.8239 57.8151 86.9895 58.0194 86.9895Z" fill="#FFF9C5"/>
<path d="M60.1644 86.9895C60.3687 86.9895 60.5343 86.8239 60.5343 86.6196C60.5343 86.4153 60.3687 86.2497 60.1644 86.2497C59.9602 86.2497 59.7946 86.4153 59.7946 86.6196C59.7946 86.8239 59.9602 86.9895 60.1644 86.9895Z" fill="#FFF9C5"/>
<path d="M63.0497 86.9895C63.254 86.9895 63.4196 86.8239 63.4196 86.6196C63.4196 86.4153 63.254 86.2497 63.0497 86.2497C62.8454 86.2497 62.6798 86.4153 62.6798 86.6196C62.6798 86.8239 62.8454 86.9895 63.0497 86.9895Z" fill="#FFF9C5"/>
<path d="M65.861 86.9895C66.0653 86.9895 66.2309 86.8239 66.2309 86.6196C66.2309 86.4153 66.0653 86.2497 65.861 86.2497C65.6567 86.2497 65.4911 86.4153 65.4911 86.6196C65.4911 86.8239 65.6567 86.9895 65.861 86.9895Z" fill="#FFF9C5"/>
<path d="M68.746 86.9895C68.9503 86.9895 69.1159 86.8239 69.1159 86.6196C69.1159 86.4153 68.9503 86.2497 68.746 86.2497C68.5417 86.2497 68.3761 86.4153 68.3761 86.6196C68.3761 86.8239 68.5417 86.9895 68.746 86.9895Z" fill="#FFF9C5"/>
<path d="M71.631 86.9895C71.8353 86.9895 72.0009 86.8239 72.0009 86.6196C72.0009 86.4153 71.8353 86.2497 71.631 86.2497C71.4267 86.2497 71.2611 86.4153 71.2611 86.6196C71.2611 86.8239 71.4267 86.9895 71.631 86.9895Z" fill="#FFF9C5"/>
<path d="M74.5162 86.9895C74.7205 86.9895 74.8861 86.8239 74.8861 86.6196C74.8861 86.4153 74.7205 86.2497 74.5162 86.2497C74.312 86.2497 74.1464 86.4153 74.1464 86.6196C74.1464 86.8239 74.312 86.9895 74.5162 86.9895Z" fill="#FFF9C5"/>
<path d="M76.5877 86.9895C76.7919 86.9895 76.9575 86.8239 76.9575 86.6196C76.9575 86.4153 76.7919 86.2497 76.5877 86.2497C76.3834 86.2497 76.2178 86.4153 76.2178 86.6196C76.2178 86.8239 76.3834 86.9895 76.5877 86.9895Z" fill="#FFF9C5"/>
<path d="M61.5703 84.8441C61.7746 84.8441 61.9402 84.6785 61.9402 84.4743C61.9402 84.27 61.7746 84.1044 61.5703 84.1044C61.366 84.1044 61.2004 84.27 61.2004 84.4743C61.2004 84.6785 61.366 84.8441 61.5703 84.8441Z" fill="#FFF9C5"/>
<path d="M64.4553 84.8441C64.6596 84.8441 64.8252 84.6785 64.8252 84.4743C64.8252 84.27 64.6596 84.1044 64.4553 84.1044C64.2511 84.1044 64.0854 84.27 64.0854 84.4743C64.0854 84.6785 64.2511 84.8441 64.4553 84.8441Z" fill="#FFF9C5"/>
<path d="M67.3406 84.8441C67.5449 84.8441 67.7105 84.6785 67.7105 84.4743C67.7105 84.27 67.5449 84.1044 67.3406 84.1044C67.1363 84.1044 66.9707 84.27 66.9707 84.4743C66.9707 84.6785 67.1363 84.8441 67.3406 84.8441Z" fill="#FFF9C5"/>
<path d="M70.2256 84.8441C70.4299 84.8441 70.5955 84.6785 70.5955 84.4743C70.5955 84.27 70.4299 84.1044 70.2256 84.1044C70.0213 84.1044 69.8557 84.27 69.8557 84.4743C69.8557 84.6785 70.0213 84.8441 70.2256 84.8441Z" fill="#FFF9C5"/>
<path d="M73.0369 84.8441C73.2412 84.8441 73.4068 84.6785 73.4068 84.4743C73.4068 84.27 73.2412 84.1044 73.0369 84.1044C72.8326 84.1044 72.667 84.27 72.667 84.4743C72.667 84.6785 72.8326 84.8441 73.0369 84.8441Z" fill="#FFF9C5"/>
<path d="M65.8611 82.7728C66.0654 82.7728 66.231 82.6072 66.231 82.4029C66.231 82.1986 66.0654 82.033 65.8611 82.033C65.6568 82.033 65.4912 82.1986 65.4912 82.4029C65.4912 82.6072 65.6568 82.7728 65.8611 82.7728Z" fill="#FFF9C5"/>
<path d="M68.7461 82.7728C68.9504 82.7728 69.116 82.6072 69.116 82.4029C69.116 82.1986 68.9504 82.033 68.7461 82.033C68.5418 82.033 68.3762 82.1986 68.3762 82.4029C68.3762 82.6072 68.5418 82.7728 68.7461 82.7728Z" fill="#FFF9C5"/>
<path d="M67.3406 81.3672C67.5449 81.3672 67.7105 81.2016 67.7105 80.9973C67.7105 80.793 67.5449 80.6274 67.3406 80.6274C67.1363 80.6274 66.9707 80.793 66.9707 80.9973C66.9707 81.2016 67.1363 81.3672 67.3406 81.3672Z" fill="#FFF9C5"/>
<path d="M77.3274 46.9679C77.5317 46.9679 77.6973 46.8023 77.6973 46.5981C77.6973 46.3938 77.5317 46.2282 77.3274 46.2282C77.1231 46.2282 76.9575 46.3938 76.9575 46.5981C76.9575 46.8023 77.1231 46.9679 77.3274 46.9679Z" fill="#FFF9C5"/>
<path d="M74.5164 46.9679C74.7207 46.9679 74.8863 46.8023 74.8863 46.5981C74.8863 46.3938 74.7207 46.2282 74.5164 46.2282C74.3121 46.2282 74.1465 46.3938 74.1465 46.5981C74.1465 46.8023 74.3121 46.9679 74.5164 46.9679Z" fill="#FFF9C5"/>
<path d="M71.6311 46.9679C71.8354 46.9679 72.001 46.8023 72.001 46.5981C72.001 46.3938 71.8354 46.2282 71.6311 46.2282C71.4268 46.2282 71.2612 46.3938 71.2612 46.5981C71.2612 46.8023 71.4268 46.9679 71.6311 46.9679Z" fill="#FFF9C5"/>
<path d="M68.7461 46.9679C68.9504 46.9679 69.116 46.8023 69.116 46.5981C69.116 46.3938 68.9504 46.2282 68.7461 46.2282C68.5418 46.2282 68.3762 46.3938 68.3762 46.5981C68.3762 46.8023 68.5418 46.9679 68.7461 46.9679Z" fill="#FFF9C5"/>
<path d="M65.8611 46.9679C66.0654 46.9679 66.231 46.8023 66.231 46.5981C66.231 46.3938 66.0654 46.2282 65.8611 46.2282C65.6568 46.2282 65.4912 46.3938 65.4912 46.5981C65.4912 46.8023 65.6568 46.9679 65.8611 46.9679Z" fill="#FFF9C5"/>
<path d="M63.0498 46.9679C63.2541 46.9679 63.4197 46.8023 63.4197 46.5981C63.4197 46.3938 63.2541 46.2282 63.0498 46.2282C62.8455 46.2282 62.6799 46.3938 62.6799 46.5981C62.6799 46.8023 62.8455 46.9679 63.0498 46.9679Z" fill="#FFF9C5"/>
<path d="M60.1646 46.9679C60.3688 46.9679 60.5344 46.8023 60.5344 46.5981C60.5344 46.3938 60.3688 46.2282 60.1646 46.2282C59.9603 46.2282 59.7947 46.3938 59.7947 46.5981C59.7947 46.8023 59.9603 46.9679 60.1646 46.9679Z" fill="#FFF9C5"/>
<path d="M57.2796 46.9679C57.4838 46.9679 57.6494 46.8023 57.6494 46.5981C57.6494 46.3938 57.4838 46.2282 57.2796 46.2282C57.0753 46.2282 56.9097 46.3938 56.9097 46.5981C56.9097 46.8023 57.0753 46.9679 57.2796 46.9679Z" fill="#FFF9C5"/>
<path d="M65.4912 42.7513C65.4912 42.9732 65.6392 43.1211 65.8611 43.1211C66.083 43.1211 66.231 42.9732 66.231 42.7513C66.231 42.5293 66.083 42.3814 65.8611 42.3814C65.6392 42.3814 65.4912 42.5293 65.4912 42.7513Z" fill="#FFF9C5"/>
<path d="M62.6799 42.7513C62.6799 42.9732 62.8279 43.1211 63.0498 43.1211C63.2717 43.1211 63.4197 42.9732 63.4197 42.7513C63.4197 42.5293 63.2717 42.3814 63.0498 42.3814C62.8279 42.3814 62.6799 42.5293 62.6799 42.7513Z" fill="#FFF9C5"/>
<path d="M59.7949 42.7513C59.7949 42.9732 59.9429 43.1211 60.1648 43.1211C60.3867 43.1211 60.5347 42.9732 60.5347 42.7513C60.5347 42.5293 60.3867 42.3814 60.1648 42.3814C59.9429 42.3814 59.7949 42.5293 59.7949 42.7513Z" fill="#FFF9C5"/>
<path d="M75.9219 49.1133C76.1262 49.1133 76.2918 48.9477 76.2918 48.7434C76.2918 48.5391 76.1262 48.3735 75.9219 48.3735C75.7176 48.3735 75.552 48.5391 75.552 48.7434C75.552 48.9477 75.7176 49.1133 75.9219 49.1133Z" fill="#FFF9C5"/>
<path d="M73.0369 49.1133C73.2412 49.1133 73.4068 48.9477 73.4068 48.7434C73.4068 48.5391 73.2412 48.3735 73.0369 48.3735C72.8326 48.3735 72.667 48.5391 72.667 48.7434C72.667 48.9477 72.8326 49.1133 73.0369 49.1133Z" fill="#FFF9C5"/>
<path d="M70.2256 49.1133C70.4299 49.1133 70.5955 48.9477 70.5955 48.7434C70.5955 48.5391 70.4299 48.3735 70.2256 48.3735C70.0213 48.3735 69.8557 48.5391 69.8557 48.7434C69.8557 48.9477 70.0213 49.1133 70.2256 49.1133Z" fill="#FFF9C5"/>
<path d="M67.3406 49.1133C67.5449 49.1133 67.7105 48.9477 67.7105 48.7434C67.7105 48.5391 67.5449 48.3735 67.3406 48.3735C67.1363 48.3735 66.9707 48.5391 66.9707 48.7434C66.9707 48.9477 67.1363 49.1133 67.3406 49.1133Z" fill="#FFF9C5"/>
<path d="M64.4553 49.1133C64.6596 49.1133 64.8252 48.9477 64.8252 48.7434C64.8252 48.5391 64.6596 48.3735 64.4553 48.3735C64.2511 48.3735 64.0854 48.5391 64.0854 48.7434C64.0854 48.9477 64.2511 49.1133 64.4553 49.1133Z" fill="#FFF9C5"/>
<path d="M61.5703 49.1133C61.7746 49.1133 61.9402 48.9477 61.9402 48.7434C61.9402 48.5391 61.7746 48.3735 61.5703 48.3735C61.366 48.3735 61.2004 48.5391 61.2004 48.7434C61.2004 48.9477 61.366 49.1133 61.5703 49.1133Z" fill="#FFF9C5"/>
<path d="M58.7593 49.1133C58.9636 49.1133 59.1292 48.9477 59.1292 48.7434C59.1292 48.5391 58.9636 48.3735 58.7593 48.3735C58.555 48.3735 58.3894 48.5391 58.3894 48.7434C58.3894 48.9477 58.555 49.1133 58.7593 49.1133Z" fill="#FFF9C5"/>
<path d="M78.8071 44.8966C79.0114 44.8966 79.177 44.731 79.177 44.5267C79.177 44.3224 79.0114 44.1568 78.8071 44.1568C78.6029 44.1568 78.4373 44.3224 78.4373 44.5267C78.4373 44.731 78.6029 44.8966 78.8071 44.8966Z" fill="#FFF9C5"/>
<path d="M75.9219 44.8966C76.1262 44.8966 76.2918 44.731 76.2918 44.5267C76.2918 44.3224 76.1262 44.1568 75.9219 44.1568C75.7176 44.1568 75.552 44.3224 75.552 44.5267C75.552 44.731 75.7176 44.8966 75.9219 44.8966Z" fill="#FFF9C5"/>
<path d="M73.0369 44.8966C73.2412 44.8966 73.4068 44.731 73.4068 44.5267C73.4068 44.3224 73.2412 44.1568 73.0369 44.1568C72.8326 44.1568 72.667 44.3224 72.667 44.5267C72.667 44.731 72.8326 44.8966 73.0369 44.8966Z" fill="#FFF9C5"/>
<path d="M70.2256 44.8966C70.4299 44.8966 70.5955 44.731 70.5955 44.5267C70.5955 44.3224 70.4299 44.1568 70.2256 44.1568C70.0213 44.1568 69.8557 44.3224 69.8557 44.5267C69.8557 44.731 70.0213 44.8966 70.2256 44.8966Z" fill="#FFF9C5"/>
<path d="M67.3406 44.8966C67.5449 44.8966 67.7105 44.731 67.7105 44.5267C67.7105 44.3224 67.5449 44.1568 67.3406 44.1568C67.1363 44.1568 66.9707 44.3224 66.9707 44.5267C66.9707 44.731 67.1363 44.8966 67.3406 44.8966Z" fill="#FFF9C5"/>
<path d="M64.4556 44.8966C64.6599 44.8966 64.8255 44.731 64.8255 44.5267C64.8255 44.3224 64.6599 44.1568 64.4556 44.1568C64.2513 44.1568 64.0857 44.3224 64.0857 44.5267C64.0857 44.731 64.2513 44.8966 64.4556 44.8966Z" fill="#FFF9C5"/>
<path d="M61.5703 44.8966C61.7746 44.8966 61.9402 44.731 61.9402 44.5267C61.9402 44.3224 61.7746 44.1568 61.5703 44.1568C61.366 44.1568 61.2004 44.3224 61.2004 44.5267C61.2004 44.731 61.366 44.8966 61.5703 44.8966Z" fill="#FFF9C5"/>
<path d="M58.7593 44.8966C58.9636 44.8966 59.1292 44.731 59.1292 44.5267C59.1292 44.3224 58.9636 44.1568 58.7593 44.1568C58.555 44.1568 58.3894 44.3224 58.3894 44.5267C58.3894 44.731 58.555 44.8966 58.7593 44.8966Z" fill="#FFF9C5"/>
<path d="M55.874 44.8966C56.0783 44.8966 56.2439 44.731 56.2439 44.5267C56.2439 44.3224 56.0783 44.1568 55.874 44.1568C55.6698 44.1568 55.5042 44.3224 55.5042 44.5267C55.5042 44.731 55.6698 44.8966 55.874 44.8966Z" fill="#FFF9C5"/>
<path d="M74.5164 51.2586C74.7207 51.2586 74.8863 51.093 74.8863 50.8887C74.8863 50.6844 74.7207 50.5188 74.5164 50.5188C74.3121 50.5188 74.1465 50.6844 74.1465 50.8887C74.1465 51.093 74.3121 51.2586 74.5164 51.2586Z" fill="#FFF9C5"/>
<path d="M71.6314 51.2586C71.8356 51.2586 72.0012 51.093 72.0012 50.8887C72.0012 50.6844 71.8356 50.5188 71.6314 50.5188C71.4271 50.5188 71.2615 50.6844 71.2615 50.8887C71.2615 51.093 71.4271 51.2586 71.6314 51.2586Z" fill="#FFF9C5"/>
<path d="M68.7463 51.2586C68.9506 51.2586 69.1162 51.093 69.1162 50.8887C69.1162 50.6844 68.9506 50.5188 68.7463 50.5188C68.5421 50.5188 68.3765 50.6844 68.3765 50.8887C68.3765 51.093 68.5421 51.2586 68.7463 51.2586Z" fill="#FFF9C5"/>
<path d="M65.8611 51.2586C66.0654 51.2586 66.231 51.093 66.231 50.8887C66.231 50.6844 66.0654 50.5188 65.8611 50.5188C65.6568 50.5188 65.4912 50.6844 65.4912 50.8887C65.4912 51.093 65.6568 51.2586 65.8611 51.2586Z" fill="#FFF9C5"/>
<path d="M63.0498 51.2586C63.2541 51.2586 63.4197 51.093 63.4197 50.8887C63.4197 50.6844 63.2541 50.5188 63.0498 50.5188C62.8455 50.5188 62.6799 50.6844 62.6799 50.8887C62.6799 51.093 62.8455 51.2586 63.0498 51.2586Z" fill="#FFF9C5"/>
<path d="M60.1648 51.2586C60.3691 51.2586 60.5347 51.093 60.5347 50.8887C60.5347 50.6844 60.3691 50.5188 60.1648 50.5188C59.9605 50.5188 59.7949 50.6844 59.7949 50.8887C59.7949 51.093 59.9605 51.2586 60.1648 51.2586Z" fill="#FFF9C5"/>
<path d="M73.0369 53.3299C73.2412 53.3299 73.4068 53.1643 73.4068 52.9601C73.4068 52.7558 73.2412 52.5902 73.0369 52.5902C72.8326 52.5902 72.667 52.7558 72.667 52.9601C72.667 53.1643 72.8326 53.3299 73.0369 53.3299Z" fill="#FFF9C5"/>
<path d="M70.2256 53.3299C70.4299 53.3299 70.5955 53.1643 70.5955 52.9601C70.5955 52.7558 70.4299 52.5902 70.2256 52.5902C70.0213 52.5902 69.8557 52.7558 69.8557 52.9601C69.8557 53.1643 70.0213 53.3299 70.2256 53.3299Z" fill="#FFF9C5"/>
<path d="M67.3406 53.3299C67.5449 53.3299 67.7105 53.1643 67.7105 52.9601C67.7105 52.7558 67.5449 52.5902 67.3406 52.5902C67.1363 52.5902 66.9707 52.7558 66.9707 52.9601C66.9707 53.1643 67.1363 53.3299 67.3406 53.3299Z" fill="#FFF9C5"/>
<path d="M64.4553 53.3299C64.6596 53.3299 64.8252 53.1643 64.8252 52.9601C64.8252 52.7558 64.6596 52.5902 64.4553 52.5902C64.2511 52.5902 64.0854 52.7558 64.0854 52.9601C64.0854 53.1643 64.2511 53.3299 64.4553 53.3299Z" fill="#FFF9C5"/>
<path d="M61.5703 53.3299C61.7746 53.3299 61.9402 53.1643 61.9402 52.9601C61.9402 52.7558 61.7746 52.5902 61.5703 52.5902C61.366 52.5902 61.2004 52.7558 61.2004 52.9601C61.2004 53.1643 61.366 53.3299 61.5703 53.3299Z" fill="#FFF9C5"/>
<path d="M68.7461 55.4753C68.9504 55.4753 69.116 55.3097 69.116 55.1054C69.116 54.9011 68.9504 54.7355 68.7461 54.7355C68.5418 54.7355 68.3762 54.9011 68.3762 55.1054C68.3762 55.3097 68.5418 55.4753 68.7461 55.4753Z" fill="#FFF9C5"/>
<path d="M65.8611 55.4753C66.0654 55.4753 66.231 55.3097 66.231 55.1054C66.231 54.9011 66.0654 54.7355 65.8611 54.7355C65.6568 54.7355 65.4912 54.9011 65.4912 55.1054C65.4912 55.3097 65.6568 55.4753 65.8611 55.4753Z" fill="#FFF9C5"/>
<path d="M67.3406 56.8809C67.5449 56.8809 67.7105 56.7152 67.7105 56.511C67.7105 56.3067 67.5449 56.1411 67.3406 56.1411C67.1363 56.1411 66.9707 56.3067 66.9707 56.511C66.9707 56.7152 67.1363 56.8809 67.3406 56.8809Z" fill="#FFF9C5"/>
<g opacity="0.8">
<path d="M58.7594 39.8662C58.3895 38.8305 58.2416 37.9428 58.2416 37.129C58.2416 36.5372 58.2416 35.9454 58.3156 35.2796C58.3895 34.2439 57.6497 33.3562 56.6141 33.2822C55.5784 33.2082 54.6907 33.948 54.6167 34.9837C54.5427 35.7235 54.5427 36.3893 54.5427 37.129C54.5427 38.3127 54.7647 39.6442 55.2085 41.0498C55.4304 41.8635 56.1702 42.3074 56.984 42.3074C57.2059 42.3074 57.3539 42.3074 57.5758 42.2334C58.5375 41.8635 59.1293 40.8279 58.7594 39.8662Z" fill="white"/>
<path d="M68.5981 53.182C65.1951 49.927 62.384 46.672 60.6086 43.639C60.0907 42.7513 58.9811 42.4554 58.0933 42.9732C57.2056 43.491 56.9097 44.6007 57.4275 45.4884C59.4249 48.8174 62.384 52.3683 66.0828 55.8452C66.4527 56.2151 66.8966 56.363 67.3404 56.363C67.8583 56.363 68.3022 56.1411 68.672 55.7712C69.3378 55.0314 69.3378 53.9218 68.5981 53.182Z" fill="white"/>
</g>
<g opacity="0.8">
<path d="M58.7594 83.1427C58.3895 84.1784 58.2416 85.0661 58.2416 85.8798C58.2416 86.4716 58.2416 87.0635 58.3156 87.7293C58.3895 88.7649 57.6497 89.6527 56.6141 89.7266C55.5784 89.8006 54.6907 89.0608 54.6167 88.0252C54.5427 87.2854 54.5427 86.6196 54.5427 85.8798C54.5427 84.6962 54.7647 83.3646 55.2085 81.9591C55.4304 81.1453 56.1702 80.7014 56.984 80.7014C57.2059 80.7014 57.3539 80.7015 57.5758 80.7754C58.5375 81.1453 59.1293 82.181 58.7594 83.1427Z" fill="white"/>
<path d="M68.5981 69.8268C65.1951 73.0818 62.384 76.3368 60.6086 79.3699C60.0907 80.2576 58.9811 80.5535 58.0933 80.0356C57.2056 79.5178 56.9097 78.4082 57.4275 77.5204C59.4249 74.1915 62.384 70.6406 66.0828 67.1637C66.4527 66.7938 66.8966 66.6458 67.3404 66.6458C67.8583 66.6458 68.3022 66.8677 68.672 67.2376C69.3378 67.9774 69.3378 69.0871 68.5981 69.8268Z" fill="white"/>
</g>
<path d="M53.0631 18.2649C52.9151 18.3389 52.7672 18.4868 52.6932 18.6348L52.0274 20.7061C51.8795 21.076 52.1014 21.4459 52.4713 21.5939C52.8412 21.7418 53.211 21.5199 53.359 21.15L54.0248 19.0787C54.0248 19.0047 54.0248 19.0047 54.0248 18.9307C54.0248 18.7827 54.0248 18.6348 53.9508 18.5608C53.8769 18.4128 53.7289 18.2649 53.5809 18.1909C53.359 18.1909 53.211 18.1909 53.0631 18.2649Z" fill="#272343"/>
<path d="M43.1501 23.6652C43.0021 24.0351 43.2241 24.405 43.594 24.5529L45.6653 25.2187C46.0352 25.3667 46.4051 25.1447 46.553 24.7749C46.553 24.7009 46.553 24.7009 46.553 24.6269C46.627 24.331 46.4051 23.9611 46.1092 23.8871L44.0378 23.2213C43.594 23.1474 43.2241 23.3693 43.1501 23.6652Z" fill="#272343"/>
<path d="M43.9637 29.1395C43.5938 29.2875 43.5198 29.7313 43.6678 30.0272C43.7417 30.1752 43.8897 30.3231 44.0376 30.3971C44.1856 30.4711 44.4075 30.3971 44.5555 30.3231L46.4789 29.3614C46.7008 29.2875 46.8488 29.0655 46.8488 28.8436C46.8488 28.6956 46.8488 28.5477 46.7748 28.4737C46.7008 28.3258 46.5529 28.1778 46.4049 28.1038C46.257 28.0299 46.035 28.0298 45.8871 28.1778L43.9637 29.1395Z" fill="#272343"/>
<path d="M48.1066 19.0786C48.0327 18.9307 47.8847 18.7827 47.7368 18.7088C47.5888 18.6348 47.3669 18.6348 47.2189 18.7827C46.923 18.9307 46.7751 19.3745 46.923 19.6704L47.8847 21.5938C47.9587 21.7418 48.1067 21.8898 48.2546 21.9637C48.4026 22.0377 48.6245 21.9637 48.7725 21.8897C48.9944 21.8158 49.1423 21.5938 49.1423 21.3719C49.1423 21.224 49.1423 21.076 49.0684 21.002L48.1066 19.0786Z" fill="#272343"/>
<path d="M209.672 44.6007H147.384C146.126 44.6007 145.016 45.6364 145.016 46.9679C145.016 48.2255 146.052 49.3352 147.384 49.3352H209.672C210.93 49.3352 212.039 48.2995 212.039 46.9679C212.039 45.7103 211.004 44.6007 209.672 44.6007Z" fill="#534F7F"/>
<path d="M137.027 44.6007H121.27C120.012 44.6007 118.903 45.6364 118.903 46.9679C118.903 48.2255 119.938 49.3352 121.27 49.3352H137.027C138.284 49.3352 139.394 48.2995 139.394 46.9679C139.32 45.7103 138.284 44.6007 137.027 44.6007Z" fill="#534F7F"/>
<path d="M212.187 189.374H149.899C148.641 189.374 147.532 190.409 147.532 191.741C147.532 192.998 148.567 194.108 149.899 194.108H212.187C213.445 194.108 214.555 193.072 214.555 191.741C214.555 190.483 213.445 189.374 212.187 189.374Z" fill="#272343"/>
<path d="M139.468 189.374H123.711C122.453 189.374 121.344 190.409 121.344 191.741C121.344 192.998 122.379 194.108 123.711 194.108H139.468C140.726 194.108 141.835 193.072 141.835 191.741C141.835 190.483 140.8 189.374 139.468 189.374Z" fill="#272343"/>
<path d="M21.031 175.244H65.4172C66.3049 175.244 67.0447 174.504 67.0447 173.616C67.0447 172.729 66.3049 171.989 65.4172 171.989H21.031C20.1433 171.989 19.4035 172.729 19.4035 173.616C19.3296 174.504 20.0693 175.244 21.031 175.244Z" fill="#534F7F"/>
<path d="M72.741 175.244H83.9115C84.7993 175.244 85.539 174.504 85.539 173.616C85.539 172.729 84.7993 171.989 83.9115 171.989H72.741C71.8533 171.989 71.1135 172.729 71.1135 173.616C71.1135 174.504 71.8533 175.244 72.741 175.244Z" fill="#534F7F"/>
<path d="M172.536 183.751H216.922C217.81 183.751 218.549 183.012 218.549 182.124C218.549 181.236 217.81 180.496 216.922 180.496H172.536C171.648 180.496 170.908 181.236 170.908 182.124C170.908 183.012 171.574 183.751 172.536 183.751Z" fill="white"/>
<path d="M224.246 183.751H235.416C236.304 183.751 237.044 183.012 237.044 182.124C237.044 181.236 236.304 180.496 235.416 180.496H224.246C223.358 180.496 222.618 181.236 222.618 182.124C222.618 183.012 223.358 183.751 224.246 183.751Z" fill="white"/>
<path d="M125.264 8.13007H94.1202C93.4544 8.13007 92.9365 8.6479 92.9365 9.31369C92.9365 9.97948 93.4544 10.4973 94.1202 10.4973H125.264C125.93 10.4973 126.448 9.97948 126.448 9.31369C126.448 8.6479 125.856 8.13007 125.264 8.13007Z" fill="#FFE05F"/>
<path d="M88.8677 8.13007H81.0261C80.3603 8.13007 79.8425 8.6479 79.8425 9.31369C79.8425 9.97948 80.3603 10.4973 81.0261 10.4973H88.8677C89.5335 10.4973 90.0513 9.97948 90.0513 9.31369C90.0513 8.6479 89.5335 8.13007 88.8677 8.13007Z" fill="#FFE05F"/>
<path d="M104.033 179.239H72.8889C72.2231 179.239 71.7053 179.757 71.7053 180.422C71.7053 181.088 72.2231 181.606 72.8889 181.606H104.033C104.699 181.606 105.217 181.088 105.217 180.422C105.217 179.757 104.699 179.239 104.033 179.239Z" fill="#BAE8E8"/>
<path d="M67.6365 179.239H59.795C59.1292 179.239 58.6113 179.757 58.6113 180.422C58.6113 181.088 59.1292 181.606 59.795 181.606H67.6365C68.3023 181.606 68.8201 181.088 68.8201 180.422C68.8201 179.757 68.3023 179.239 67.6365 179.239Z" fill="#BAE8E8"/>
</svg>
