<svg width="45" height="45" viewBox="0 0 45 45" fill="none" xmlns="http://www.w3.org/2000/svg">
<path d="M45 12.2561L22.5 14.5592L0 12.2561V8.78044C0 7.77014 0.818965 6.95117 1.82927 6.95117H43.1707C44.181 6.95117 45 7.77014 45 8.78044V12.2561Z" fill="#60B7FF"/>
<path d="M43.1707 6.95117H40.4268C41.4371 6.95117 42.256 7.77014 42.256 8.78044V13.5199L45 12.2561V8.78044C45 7.77022 44.181 6.95117 43.1707 6.95117Z" fill="#26A6FE"/>
<path d="M43.1707 38.049H1.82927C0.818965 38.049 0 37.2299 0 36.2197V12.2563H45V36.2197C45 37.2299 44.181 38.049 43.1707 38.049Z" fill="#EAF6FF"/>
<path d="M42.256 12.2559V36.2192C42.256 37.2295 41.4371 38.0485 40.4268 38.0485H43.1707C44.181 38.0485 45 37.2295 45 36.2192V12.2559H42.256Z" fill="#D8ECFE"/>
<path d="M16.7189 17.4695V16.0061C16.7189 15.812 16.796 15.6259 16.9332 15.4887C17.0704 15.3515 17.2565 15.2744 17.4506 15.2744H41.5243C41.7184 15.2744 41.9045 15.3515 42.0417 15.4887C42.1789 15.6259 42.256 15.812 42.256 16.0061V17.4695C42.256 17.6635 42.1789 17.8496 42.0417 17.9869C41.9045 18.1241 41.7184 18.2012 41.5243 18.2012H17.4506C17.2565 18.2012 17.0704 18.1241 16.9332 17.9869C16.796 17.8496 16.7189 17.6635 16.7189 17.4695Z" fill="#60B7FF"/>
<path d="M41.5245 15.2744H38.7805C38.9746 15.2744 39.1607 15.3515 39.2979 15.4887C39.4351 15.6259 39.5122 15.812 39.5122 16.0061V17.4695C39.5122 17.6635 39.4351 17.8496 39.2979 17.9869C39.1607 18.1241 38.9746 18.2012 38.7805 18.2012H41.5245C41.7185 18.2012 41.9046 18.1241 42.0418 17.9869C42.1791 17.8496 42.2562 17.6635 42.2562 17.4695V16.0061C42.2562 15.812 42.1791 15.6259 42.0418 15.4887C41.9046 15.3515 41.7185 15.2744 41.5245 15.2744Z" fill="#26A6FE"/>
<path d="M2.78345 28.162H13.68C13.7055 28.0779 13.7195 27.9888 13.7195 27.8963V16.189C13.7195 15.6839 13.31 15.2744 12.8049 15.2744H3.65857C3.15347 15.2744 2.7439 15.6839 2.7439 16.189V27.8963C2.7439 27.9888 2.75796 28.0779 2.78345 28.162Z" fill="#FD8087"/>
<path d="M8.2318 23.323C9.6967 23.323 10.8842 22.1354 10.8842 20.6705C10.8842 19.2056 9.6967 18.0181 8.2318 18.0181C6.76689 18.0181 5.57935 19.2056 5.57935 20.6705C5.57935 22.1354 6.76689 23.323 8.2318 23.323Z" fill="#FED2A4"/>
<path d="M13.68 28.1621C13.3588 25.4373 11.0428 23.3232 8.23166 23.3232C5.42057 23.3232 3.10457 25.4374 2.78333 28.1621C2.89714 28.5375 3.24581 28.811 3.65845 28.811H12.8048C13.2176 28.811 13.5662 28.5376 13.68 28.1621Z" fill="#FFE177"/>
<path d="M13.68 28.1621C13.3588 25.4373 11.0428 23.3232 8.23167 23.3232C7.75873 23.3232 7.3003 23.3844 6.86243 23.4969C9.22791 24.1071 10.9755 26.2549 10.9755 28.811H12.8048C13.2176 28.811 13.5662 28.5376 13.68 28.1621Z" fill="#FFD15B"/>
<path d="M20.3049 21.6045H17.3781C17.2032 21.6045 17.0356 21.535 16.9119 21.4114C16.7883 21.2878 16.7189 21.1201 16.7189 20.9453C16.7189 20.7705 16.7883 20.6028 16.9119 20.4792C17.0356 20.3556 17.2032 20.2861 17.3781 20.2861H20.3049C20.4797 20.2861 20.6474 20.3556 20.771 20.4792C20.8946 20.6028 20.9641 20.7705 20.9641 20.9453C20.9641 21.1201 20.8946 21.2878 20.771 21.4114C20.6474 21.535 20.4797 21.6045 20.3049 21.6045ZM25.9757 24.5313H23.0488C22.874 24.5313 22.7064 24.4619 22.5827 24.3383C22.4591 24.2146 22.3897 24.047 22.3897 23.8722C22.3897 23.6973 22.4591 23.5297 22.5827 23.406C22.7064 23.2824 22.874 23.213 23.0488 23.213H25.9757C26.1505 23.213 26.3182 23.2824 26.4418 23.406C26.5654 23.5297 26.6349 23.6973 26.6349 23.8722C26.6349 24.047 26.5654 24.2146 26.4418 24.3383C26.3182 24.4619 26.1505 24.5313 25.9757 24.5313ZM25.9757 30.3849H23.0488C22.874 30.3849 22.7064 30.3155 22.5827 30.1919C22.4591 30.0683 22.3897 29.9006 22.3897 29.7258C22.3897 29.5509 22.4591 29.3833 22.5827 29.2596C22.7064 29.136 22.874 29.0666 23.0488 29.0666H25.9757C26.1505 29.0666 26.3182 29.136 26.4418 29.2596C26.5654 29.3833 26.6349 29.5509 26.6349 29.7258C26.6349 29.9006 26.5654 30.0683 26.4418 30.1919C26.3182 30.3155 26.1505 30.3849 25.9757 30.3849ZM31.6464 24.5313H28.7195C28.5447 24.5313 28.3771 24.4619 28.2534 24.3383C28.1298 24.2146 28.0604 24.047 28.0604 23.8722C28.0604 23.6973 28.1298 23.5297 28.2534 23.406C28.3771 23.2824 28.5447 23.213 28.7195 23.213H31.6464C31.8212 23.213 31.9889 23.2824 32.1125 23.406C32.2361 23.5297 32.3056 23.6973 32.3056 23.8722C32.3056 24.047 32.2361 24.2146 32.1125 24.3383C31.9889 24.4619 31.8212 24.5313 31.6464 24.5313ZM37.683 21.6045H23.0488C22.874 21.6045 22.7064 21.535 22.5827 21.4114C22.4591 21.2878 22.3897 21.1201 22.3897 20.9453C22.3897 20.7705 22.4591 20.6028 22.5827 20.4792C22.7064 20.3556 22.874 20.2861 23.0488 20.2861H37.683C37.8578 20.2861 38.0255 20.3556 38.1491 20.4792C38.2727 20.6028 38.3422 20.7705 38.3422 20.9453C38.3422 21.1201 38.2727 21.2878 38.1491 21.4114C38.0255 21.535 37.8578 21.6045 37.683 21.6045ZM20.3049 27.4582H17.3781C17.2032 27.4582 17.0356 27.3887 16.9119 27.2651C16.7883 27.1415 16.7189 26.9738 16.7189 26.799C16.7189 26.6242 16.7883 26.4565 16.9119 26.3329C17.0356 26.2093 17.2032 26.1398 17.3781 26.1398H20.3049C20.4797 26.1398 20.6474 26.2093 20.771 26.3329C20.8946 26.4565 20.9641 26.6242 20.9641 26.799C20.9641 26.9738 20.8946 27.1415 20.771 27.2651C20.6474 27.3887 20.4797 27.4582 20.3049 27.4582ZM37.683 27.4582H23.0488C22.874 27.4582 22.7064 27.3887 22.5827 27.2651C22.4591 27.1415 22.3897 26.9738 22.3897 26.799C22.3897 26.6242 22.4591 26.4565 22.5827 26.3329C22.7064 26.2093 22.874 26.1398 23.0488 26.1398H37.683C37.8578 26.1398 38.0255 26.2093 38.1491 26.3329C38.2727 26.4565 38.3422 26.6242 38.3422 26.799C38.3422 26.9738 38.2727 27.1415 38.1491 27.2651C38.0255 27.3887 37.8578 27.4582 37.683 27.4582Z" fill="#B3DAFE"/>
<path d="M41.5969 35.964C41.4221 35.964 41.2544 35.8945 41.1308 35.7709C41.0072 35.6473 40.9377 35.4796 40.9377 35.3048V32.3779C40.9377 32.2031 41.0072 32.0354 41.1308 31.9118C41.2544 31.7882 41.4221 31.7188 41.5969 31.7188C41.7717 31.7188 41.9394 31.7882 42.063 31.9118C42.1866 32.0354 42.2561 32.2031 42.2561 32.3779V35.3048C42.2561 35.3913 42.239 35.4771 42.2059 35.557C42.1728 35.637 42.1242 35.7097 42.063 35.7709C42.0018 35.8321 41.9291 35.8806 41.8492 35.9138C41.7692 35.9469 41.6835 35.964 41.5969 35.964ZM38.853 35.0494C38.6782 35.0494 38.5106 34.9799 38.3869 34.8563C38.2633 34.7327 38.1939 34.565 38.1939 34.3902V32.3779C38.1939 32.2031 38.2633 32.0354 38.3869 31.9118C38.5106 31.7882 38.6782 31.7188 38.853 31.7188C39.0279 31.7188 39.1955 31.7882 39.3192 31.9118C39.4428 32.0354 39.5122 32.2031 39.5122 32.3779V34.3902C39.5122 34.565 39.4428 34.7327 39.3192 34.8563C39.1955 34.9799 39.0279 35.0494 38.853 35.0494ZM36.1092 35.964C35.9344 35.964 35.7667 35.8945 35.6431 35.7709C35.5195 35.6473 35.45 35.4796 35.45 35.3048V32.3779C35.45 32.2031 35.5195 32.0354 35.6431 31.9118C35.7667 31.7882 35.9344 31.7188 36.1092 31.7188C36.284 31.7188 36.4517 31.7882 36.5753 31.9118C36.6989 32.0354 36.7684 32.2031 36.7684 32.3779V35.3048C36.7684 35.4796 36.6989 35.6473 36.5753 35.7709C36.4517 35.8945 36.284 35.964 36.1092 35.964ZM33.3652 35.0494C33.1904 35.0494 33.0228 34.9799 32.8991 34.8563C32.7755 34.7327 32.7061 34.565 32.7061 34.3902V32.3779C32.7061 32.2031 32.7755 32.0354 32.8991 31.9118C33.0228 31.7882 33.1904 31.7188 33.3652 31.7188C33.5401 31.7188 33.7077 31.7882 33.8314 31.9118C33.955 32.0354 34.0244 32.2031 34.0244 32.3779V34.3902C34.0244 34.565 33.955 34.7327 33.8314 34.8563C33.7077 34.9799 33.5401 35.0494 33.3652 35.0494ZM30.6214 35.0494C30.4466 35.0494 30.2789 34.9799 30.1553 34.8563C30.0317 34.7327 29.9622 34.565 29.9622 34.3902V32.3779C29.9622 32.2031 30.0317 32.0354 30.1553 31.9118C30.2789 31.7882 30.4466 31.7188 30.6214 31.7188C30.7962 31.7188 30.9639 31.7882 31.0875 31.9118C31.2111 32.0354 31.2806 32.2031 31.2806 32.3779V34.3902C31.2806 34.565 31.2111 34.7327 31.0875 34.8563C30.9639 34.9799 30.7962 35.0494 30.6214 35.0494ZM27.8774 35.964C27.7026 35.964 27.535 35.8945 27.4113 35.7709C27.2877 35.6473 27.2183 35.4796 27.2183 35.3048V32.3779C27.2183 32.2031 27.2877 32.0354 27.4113 31.9118C27.535 31.7882 27.7026 31.7188 27.8774 31.7188C28.0523 31.7188 28.2199 31.7882 28.3436 31.9118C28.4672 32.0354 28.5366 32.2031 28.5366 32.3779V35.3048C28.5366 35.4796 28.4672 35.6473 28.3436 35.7709C28.2199 35.8945 28.0523 35.964 27.8774 35.964Z" fill="#7A6D79"/>
</svg>
