<svg width="38" height="38" viewBox="0 0 38 38" fill="none" xmlns="http://www.w3.org/2000/svg">
<mask id="mask0_201_3927" style="mask-type:luminance" maskUnits="userSpaceOnUse" x="0" y="0" width="38" height="38">
<path d="M0 0H38V38H0V0Z" fill="white"/>
</mask>
<g mask="url(#mask0_201_3927)">
<path d="M35.5639 38H2.43665C1.11556 38 0.0674416 36.8868 0.147078 35.568L1.14718 19H36.8534L37.8535 35.568C37.9331 36.8868 36.8851 38 35.5639 38Z" fill="#EAF6FF"/>
<path d="M37.8541 35.568L36.854 19H34.5602L35.5603 35.568C35.64 36.8868 34.5919 38 33.2708 38H35.5645C36.8857 38 37.9337 36.8868 37.8541 35.568Z" fill="#D8ECFE"/>
<path d="M35.5641 0H2.4369C1.1158 0 0.0676858 1.11321 0.147322 2.432L1.14742 19H36.8536L37.8538 2.432C37.9333 1.11321 36.8853 0 35.5641 0Z" fill="#D8ECFE"/>
<path d="M35.5645 0H33.2708C34.5919 0 35.64 1.11321 35.5603 2.432L34.5602 19H36.854L37.8541 2.432C37.9337 1.11321 36.8857 0 35.5645 0Z" fill="#C4E2FF"/>
<path d="M12.8716 27.6519H3.82043V23.9842C3.82043 22.904 4.69614 22.0283 5.77632 22.0283H10.9156C11.9959 22.0283 12.8716 22.904 12.8716 23.9842V27.6519Z" fill="#355F7F"/>
<path d="M10.9163 22.0283H8.62256C9.70274 22.0283 10.5784 22.904 10.5784 23.9843V27.6519H12.8722V23.9843C12.8722 22.904 11.9965 22.0283 10.9163 22.0283Z" fill="#305972"/>
<path d="M3.82043 27.2561V30.446C3.82043 32.9455 5.84661 34.9717 8.34607 34.9717C10.8454 34.9717 12.8716 32.9455 12.8716 30.446V27.2561L10.6737 26.3017C10.0519 26.0317 9.35975 25.9688 8.69943 26.1222L3.82043 27.2561Z" fill="#FFCEBF"/>
<path d="M10.579 26.262V30.446C10.579 32.5492 9.14425 34.3168 7.20032 34.8247C7.57477 34.9225 7.96021 34.9719 8.34722 34.9717C10.8465 34.9717 12.8727 32.9455 12.8727 30.446V27.2562L10.579 26.262Z" fill="#FFB09E"/>
<path d="M6.16309 30.3232C6.08777 30.3233 6.0132 30.3084 5.94361 30.2796C5.87403 30.2508 5.8108 30.2085 5.75755 30.1553C5.70429 30.102 5.66205 30.0388 5.63323 29.9692C5.60442 29.8996 5.58959 29.8251 5.5896 29.7498V28.8764C5.5896 28.8011 5.60443 28.7265 5.63326 28.657C5.66208 28.5874 5.70432 28.5242 5.75757 28.4709C5.81083 28.4177 5.87405 28.3754 5.94363 28.3466C6.01321 28.3178 6.08778 28.303 6.16309 28.303C6.2384 28.303 6.31297 28.3178 6.38255 28.3466C6.45213 28.3754 6.51535 28.4177 6.5686 28.4709C6.62186 28.5242 6.6641 28.5874 6.69292 28.657C6.72174 28.7265 6.73658 28.8011 6.73658 28.8764V29.7498C6.73659 29.8251 6.72176 29.8996 6.69294 29.9692C6.66412 30.0388 6.62188 30.102 6.56863 30.1553C6.51537 30.2085 6.45215 30.2508 6.38256 30.2796C6.31298 30.3084 6.2384 30.3233 6.16309 30.3232Z" fill="#554E56"/>
<path d="M10.5298 30.3232C10.4545 30.3232 10.38 30.3084 10.3104 30.2796C10.2408 30.2508 10.1776 30.2085 10.1243 30.1553C10.0711 30.102 10.0289 30.0388 10 29.9692C9.97124 29.8996 9.95641 29.8251 9.95642 29.7498V28.8764C9.95641 28.8011 9.97124 28.7265 10 28.657C10.0289 28.5874 10.0711 28.5242 10.1243 28.4709C10.1776 28.4177 10.2408 28.3755 10.3104 28.3466C10.38 28.3178 10.4545 28.303 10.5298 28.303C10.6051 28.303 10.6797 28.3178 10.7493 28.3466C10.8189 28.3754 10.8821 28.4177 10.9353 28.4709C10.9886 28.5242 11.0308 28.5874 11.0597 28.657C11.0885 28.7265 11.1033 28.8011 11.1033 28.8764V29.7498C11.1033 29.8251 11.0885 29.8996 11.0597 29.9692C11.0309 30.0388 10.9886 30.102 10.9354 30.1553C10.8821 30.2085 10.8189 30.2508 10.7493 30.2796C10.6797 30.3084 10.6051 30.3233 10.5298 30.3232Z" fill="#554E56"/>
<path d="M8.34634 33.1055C8.33795 33.1055 8.32964 33.1055 8.32118 33.1053C7.92798 33.1008 7.54193 32.9997 7.19706 32.8107C7.13104 32.7745 7.07279 32.7257 7.02565 32.6669C6.97851 32.6082 6.9434 32.5408 6.92233 32.4685C6.90125 32.3962 6.89462 32.3204 6.90282 32.2456C6.91102 32.1707 6.93388 32.0982 6.9701 32.0322C7.00631 31.9662 7.05517 31.9079 7.1139 31.8608C7.17262 31.8136 7.24006 31.7785 7.31235 31.7574C7.38465 31.7363 7.46039 31.7297 7.53525 31.7379C7.61011 31.7461 7.68263 31.7689 7.74866 31.8052C7.92797 31.9034 8.12868 31.9561 8.33313 31.9585C8.54646 31.9603 8.7567 31.9075 8.94387 31.8052C9.07722 31.732 9.23416 31.7149 9.38016 31.7575C9.52616 31.8 9.64927 31.8989 9.72239 32.0322C9.79552 32.1656 9.81268 32.3225 9.77009 32.4685C9.72751 32.6145 9.62867 32.7376 9.49532 32.8107C9.24899 32.9459 8.85103 33.1055 8.34634 33.1055Z" fill="#FFB09E"/>
<path d="M33.4134 22.6016H18.9876C18.8355 22.6016 18.6897 22.5411 18.5821 22.4336C18.4746 22.3261 18.4142 22.1802 18.4142 22.0281C18.4142 21.876 18.4746 21.7302 18.5821 21.6226C18.6897 21.5151 18.8355 21.4547 18.9876 21.4547H33.4134C33.4887 21.4547 33.5633 21.4695 33.6328 21.4983C33.7024 21.5271 33.7656 21.5693 33.8189 21.6226C33.8721 21.6758 33.9144 21.7391 33.9432 21.8086C33.972 21.8782 33.9868 21.9528 33.9868 22.0281C33.9868 22.1034 33.972 22.178 33.9432 22.2475C33.9144 22.3171 33.8721 22.3803 33.8189 22.4336C33.7656 22.4868 33.7024 22.5291 33.6328 22.5579C33.5633 22.5867 33.4887 22.6016 33.4134 22.6016Z" fill="#B3DAFE"/>
<path d="M33.4134 26.0425H18.9876C18.8355 26.0425 18.6897 25.9821 18.5821 25.8745C18.4746 25.767 18.4142 25.6211 18.4142 25.469C18.4142 25.3169 18.4746 25.1711 18.5821 25.0635C18.6897 24.956 18.8355 24.8956 18.9876 24.8956H33.4134C33.4887 24.8956 33.5633 24.9104 33.6328 24.9392C33.7024 24.9681 33.7656 25.0103 33.8189 25.0636C33.8721 25.1168 33.9144 25.18 33.9432 25.2496C33.972 25.3192 33.9868 25.3938 33.9868 25.4691C33.9868 25.5444 33.972 25.6189 33.9432 25.6885C33.9144 25.7581 33.8721 25.8213 33.8189 25.8746C33.7656 25.9278 33.7024 25.97 33.6328 25.9989C33.5633 26.0277 33.4887 26.0425 33.4134 26.0425Z" fill="#B3DAFE"/>
<path d="M33.4134 29.4829H18.9876C18.8355 29.4829 18.6897 29.4225 18.5821 29.315C18.4746 29.2074 18.4142 29.0615 18.4142 28.9095C18.4142 28.7574 18.4746 28.6115 18.5821 28.504C18.6897 28.3964 18.8355 28.336 18.9876 28.336H33.4134C33.4887 28.336 33.5633 28.3508 33.6328 28.3796C33.7024 28.4084 33.7656 28.4507 33.8189 28.5039C33.8721 28.5572 33.9144 28.6204 33.9432 28.69C33.972 28.7595 33.9868 28.8341 33.9868 28.9094C33.9868 28.9847 33.972 29.0593 33.9432 29.1289C33.9144 29.1985 33.8721 29.2617 33.8189 29.3149C33.7656 29.3682 33.7024 29.4104 33.6328 29.4393C33.5633 29.4681 33.4887 29.4829 33.4134 29.4829Z" fill="#B3DAFE"/>
<path d="M23.6245 31.9305C23.5942 31.9305 23.5657 31.9338 23.5397 31.9407C23.2865 32.0073 23.0456 32.4501 23.0951 32.7575C23.1319 32.9858 23.3375 33.2201 23.6345 33.4356C23.658 33.4145 23.6814 33.3929 23.7044 33.3708L23.711 33.3645C23.9704 33.117 24.3624 32.7429 24.3047 32.4639C24.2731 32.3116 24.1457 32.1502 23.9722 32.0427C23.855 31.9703 23.7292 31.9305 23.6245 31.9305ZM26.7321 35.5498C26.2162 35.5498 25.6138 35.4686 24.9243 35.2751C24.5157 35.1605 24.092 35.003 23.6966 34.8054C22.7376 35.3739 21.6793 35.5285 20.8815 35.5454C20.5675 35.5515 20.3027 35.3008 20.296 34.9841C20.2928 34.8321 20.3502 34.6849 20.4554 34.5752C20.5607 34.4654 20.7052 34.4019 20.8573 34.3987C21.3634 34.388 21.9968 34.3115 22.6087 34.0656C22.2697 33.7404 22.0311 33.3638 21.9628 32.9399C21.8016 31.9395 22.5104 31.0259 23.2473 30.8316C23.6698 30.7205 24.1539 30.8063 24.5759 31.0677C25.0211 31.3433 25.3316 31.7675 25.4277 32.2313C25.5851 32.9911 25.0968 33.6005 24.7066 33.9955C24.8797 34.0621 25.0558 34.1206 25.2342 34.1709C26.5521 34.5408 27.637 34.414 27.9243 34.0777C28.0304 33.9534 28.079 33.7396 28.1258 33.5328C28.2014 33.2004 28.3154 32.6982 28.8379 32.5791C29.5574 32.4153 30.1106 33.229 30.5571 34.0465C30.63 34.18 30.6469 34.3369 30.6041 34.4829C30.5613 34.6288 30.4623 34.7517 30.3288 34.8247C30.2628 34.8608 30.1902 34.8835 30.1153 34.8916C30.0404 34.8997 29.9647 34.8929 29.8924 34.8717C29.8202 34.8505 29.7528 34.8153 29.6942 34.768C29.6355 34.7208 29.5867 34.6624 29.5507 34.5963C29.4059 34.3313 29.2866 34.1417 29.1917 34.0067C29.1245 34.264 29.019 34.562 28.7962 34.8227C28.454 35.2232 27.7671 35.5498 26.7321 35.5498Z" fill="#B3DAFE"/>
<path d="M7.84824 9.82484L8.08396 9.20608L8.31745 9.82484H7.84824ZM8.69648 7.58121C8.69448 7.57602 8.69255 7.57089 8.69047 7.56577C8.64147 7.44576 8.55776 7.34309 8.45007 7.27093C8.34238 7.19876 8.2156 7.16038 8.08596 7.16069H8.08544C7.95573 7.16046 7.82892 7.199 7.72126 7.27135C7.6136 7.34369 7.53002 7.44656 7.48123 7.56674C7.47937 7.57112 7.47774 7.57535 7.47603 7.57973L6.15004 11.0613C6.098 11.2029 6.1039 11.3594 6.16646 11.4967C6.22903 11.6341 6.3432 11.7412 6.48424 11.7949C6.62528 11.8486 6.7818 11.8446 6.91988 11.7837C7.05795 11.7227 7.16645 11.6098 7.22183 11.4695L7.41139 10.9717H8.75022L8.93755 11.4678C8.9641 11.5383 9.00429 11.6028 9.05581 11.6578C9.10732 11.7127 9.16916 11.7569 9.23778 11.788C9.30641 11.819 9.38047 11.8362 9.45574 11.8386C9.53101 11.841 9.60602 11.8285 9.67647 11.8019C9.74692 11.7753 9.81144 11.7351 9.86636 11.6836C9.92127 11.6321 9.9655 11.5702 9.99651 11.5016C10.0275 11.433 10.0447 11.3589 10.0471 11.2837C10.0495 11.2084 10.037 11.1334 10.0105 11.063L8.69648 7.58121Z" fill="#355F7F"/>
<path d="M12.9672 8.9901C12.5571 8.83877 12.1737 8.67452 12.0324 8.61292C12.008 8.58776 11.9985 8.55473 12.0042 8.51436C12.0156 8.43561 12.0843 8.37178 12.1925 8.33913C12.619 8.21065 13.0277 8.52786 13.043 8.53996C13.1601 8.63557 13.3101 8.6811 13.4606 8.66665C13.611 8.65221 13.7497 8.57895 13.8464 8.46282C13.9432 8.34668 13.9901 8.19706 13.9771 8.04648C13.9641 7.8959 13.8922 7.75653 13.777 7.65869C13.4534 7.38668 12.6858 6.9928 11.8617 7.24106C11.3245 7.40286 10.9441 7.82835 10.869 8.35145C10.7981 8.84545 11.0124 9.32074 11.4284 9.59186C11.4536 9.60834 11.4803 9.62281 11.5079 9.63513C11.5284 9.64434 12.0186 9.86254 12.5702 10.0661C12.76 10.136 12.9729 10.2655 12.949 10.3997C12.928 10.5178 12.7585 10.6925 12.462 10.6925C12.1477 10.6925 11.8466 10.5672 11.6565 10.3574C11.554 10.2462 11.4117 10.18 11.2606 10.1733C11.1096 10.1665 10.9619 10.2197 10.8499 10.3212C10.7378 10.4228 10.6704 10.5645 10.6623 10.7155C10.6542 10.8665 10.7061 11.0146 10.8067 11.1275C11.2166 11.5799 11.82 11.8394 12.462 11.8394C13.2703 11.8394 13.95 11.3187 14.0781 10.6013C14.1753 10.0564 13.9346 9.34694 12.9672 8.9901Z" fill="#355F7F"/>
<path d="M17.184 8.9901C16.7738 8.83877 16.3904 8.67452 16.2491 8.61292C16.2246 8.58776 16.2151 8.55473 16.221 8.51436C16.2323 8.43561 16.3009 8.37178 16.4093 8.33913C16.8353 8.2108 17.2437 8.5272 17.2597 8.53989C17.3768 8.63474 17.5266 8.67966 17.6766 8.66495C17.8266 8.65023 17.9648 8.57705 18.0612 8.46125C18.1577 8.34544 18.2047 8.19631 18.1921 8.04612C18.1794 7.89593 18.1082 7.75675 17.9937 7.65869C17.6701 7.38668 16.9025 6.99257 16.0784 7.24106C15.5412 7.40286 15.1608 7.82835 15.0857 8.35145C15.0148 8.84545 15.2291 9.32074 15.6451 9.59186C15.6703 9.60834 15.6969 9.62281 15.7245 9.63513C15.745 9.64434 16.2352 9.86254 16.787 10.0661C16.9767 10.136 17.1897 10.2655 17.1657 10.3997C17.1446 10.5178 16.9753 10.6925 16.6789 10.6925C16.3645 10.6925 16.0634 10.5672 15.8731 10.3574C15.7703 10.2475 15.6284 10.1826 15.478 10.1764C15.3277 10.1703 15.1809 10.2234 15.0695 10.3245C14.958 10.4255 14.8907 10.5664 14.882 10.7166C14.8734 10.8668 14.9242 11.0144 15.0234 11.1275C15.4334 11.5799 16.0368 11.8394 16.6789 11.8394C17.4871 11.8394 18.1666 11.3187 18.2948 10.6013C18.392 10.0564 18.1514 9.34694 17.184 8.9901Z" fill="#355F7F"/>
<path d="M34.6662 7.16071H32.716C32.5639 7.16071 32.4181 7.22113 32.3105 7.32867C32.203 7.43621 32.1426 7.58207 32.1426 7.73416C32.1426 7.88625 32.203 8.03211 32.3105 8.13965C32.4181 8.2472 32.5639 8.30761 32.716 8.30761H33.1138V11.2655C33.1138 11.4175 33.1742 11.5634 33.2817 11.6709C33.3893 11.7785 33.5351 11.8389 33.6872 11.8389C33.8393 11.8389 33.9851 11.7785 34.0926 11.6709C34.2002 11.5634 34.2606 11.4175 34.2606 11.2655V8.30761H34.6662C34.7415 8.30761 34.8161 8.29278 34.8857 8.26396C34.9552 8.23514 35.0184 8.1929 35.0717 8.13965C35.1249 8.0864 35.1672 8.02319 35.196 7.95361C35.2248 7.88404 35.2397 7.80947 35.2397 7.73416C35.2397 7.65886 35.2248 7.58429 35.196 7.51471C35.1672 7.44514 35.1249 7.38192 35.0717 7.32867C35.0184 7.27542 34.9552 7.23318 34.8857 7.20436C34.8161 7.17554 34.7415 7.16071 34.6662 7.16071Z" fill="#355F7F"/>
<path d="M30.0089 8.30803C30.22 8.30803 30.4051 8.46886 30.4051 8.65233C30.4051 8.83572 30.22 8.99663 30.0089 8.99663C29.9211 8.99663 29.7869 8.99707 29.6473 8.99767C29.6466 8.86378 29.6462 8.73597 29.6462 8.65233C29.6462 8.58011 29.6459 8.44904 29.6456 8.30803H30.0089ZM31.552 8.65233C31.552 7.83013 30.8597 7.16112 30.0089 7.16112H29.0705L29.0699 7.1612L29.0693 7.16112C28.9172 7.16112 28.7714 7.22155 28.6638 7.3291C28.5563 7.43665 28.4958 7.58251 28.4958 7.73461V11.2659C28.4976 11.4168 28.5587 11.561 28.6661 11.6672C28.7735 11.7733 28.9183 11.8328 29.0693 11.8328C29.2203 11.8328 29.3651 11.7733 29.4725 11.6672C29.5799 11.561 29.641 11.4168 29.6428 11.2659V10.6162L30.5481 11.6448C30.6018 11.706 30.6681 11.755 30.7423 11.7886C30.8166 11.8222 30.8972 11.8395 30.9787 11.8394C31.089 11.8393 31.1969 11.8075 31.2896 11.7477C31.3822 11.6878 31.4557 11.6025 31.5011 11.502C31.5465 11.4015 31.562 11.29 31.5456 11.181C31.5293 11.0719 31.4818 10.9698 31.4089 10.8871L30.6389 10.0122C31.1763 9.77867 31.552 9.25758 31.552 8.65233Z" fill="#355F7F"/>
<path d="M4.31757 9.15378C4.21998 9.15378 4.06738 9.15438 3.91152 9.15504C3.91086 8.99221 3.91019 8.83175 3.91019 8.73066C3.91019 8.6439 3.90982 8.47891 3.90937 8.30761H4.31757C4.55745 8.30761 4.76021 8.50132 4.76021 8.73066C4.76021 8.96007 4.55745 9.15378 4.31757 9.15378ZM4.31757 7.16071H3.33432C3.05237 7.15425 2.74896 7.41135 2.76084 7.7342V11.2655C2.76084 11.3408 2.77567 11.4153 2.80449 11.4849C2.83331 11.5545 2.87556 11.6177 2.92881 11.6709C2.98207 11.7242 3.04529 11.7664 3.11487 11.7952C3.18444 11.8241 3.25902 11.8389 3.33432 11.8389C3.40963 11.8389 3.4842 11.8241 3.55377 11.7952C3.62335 11.7664 3.68656 11.7242 3.73981 11.6709C3.79306 11.6177 3.8353 11.5545 3.86411 11.4849C3.89292 11.4153 3.90775 11.3408 3.90774 11.2655V10.302C4.06478 10.3012 4.21923 10.3007 4.31757 10.3007C5.19402 10.3007 5.90704 9.59635 5.90704 8.73066C5.90704 7.86497 5.19402 7.16071 4.31757 7.16071Z" fill="#355F7F"/>
<path d="M20.6151 9.15378C20.5174 9.15378 20.3648 9.15438 20.209 9.15504C20.2083 8.99221 20.2077 8.83175 20.2077 8.73066C20.2077 8.6439 20.2074 8.47891 20.2069 8.30761H20.6151C20.855 8.30761 21.0576 8.50132 21.0576 8.73066C21.0576 8.96007 20.855 9.15378 20.6151 9.15378ZM20.6151 7.16071H19.6318C19.3497 7.15485 19.0469 7.41009 19.0583 7.7342V11.2655C19.0583 11.3408 19.0731 11.4153 19.102 11.4849C19.1308 11.5545 19.173 11.6177 19.2263 11.6709C19.2795 11.7242 19.3427 11.7664 19.4123 11.7952C19.4819 11.8241 19.5565 11.8389 19.6318 11.8389C19.7071 11.8389 19.7817 11.8241 19.8512 11.7952C19.9208 11.7664 19.984 11.7242 20.0373 11.6709C20.0906 11.6177 20.1328 11.5545 20.1616 11.4849C20.1904 11.4153 20.2053 11.3408 20.2053 11.2655V10.302C20.3623 10.3012 20.5168 10.3007 20.6151 10.3007C21.4916 10.3007 22.2045 9.59635 22.2045 8.73066C22.2045 7.86497 21.4916 7.16071 20.6151 7.16071Z" fill="#355F7F"/>
<path d="M25.3209 10.692C24.6635 10.692 24.1287 10.1571 24.1287 9.49979C24.1287 8.84243 24.6635 8.30754 25.3209 8.30754C25.9782 8.30754 26.5131 8.84243 26.5131 9.49979C26.5131 10.1571 25.9782 10.692 25.3209 10.692ZM25.3209 7.16064C24.0311 7.16064 22.9818 8.20994 22.9818 9.49979C22.9818 10.7896 24.0311 11.8389 25.3209 11.8389C26.6107 11.8389 27.66 10.7896 27.66 9.49979C27.66 8.20994 26.6107 7.16064 25.3209 7.16064Z" fill="#355F7F"/>
</g>
</svg>
