<svg width="20" height="26" viewBox="0 0 20 26" fill="none" xmlns="http://www.w3.org/2000/svg">
<path fill-rule="evenodd" clip-rule="evenodd" d="M3.66238 0H12.355L19.7223 7.67917V22.6152C19.7223 24.4863 18.2086 26 16.344 26H3.66238C1.79133 26 0.277588 24.4863 0.277588 22.6152V3.3848C0.277555 1.51374 1.79129 0 3.66238 0Z" fill="#E5252A"/>
<path opacity="0.302" fill-rule="evenodd" clip-rule="evenodd" d="M12.3484 0V7.62069H19.7222L12.3484 0Z" fill="white"/>
<path d="M4.03906 19.3993V14.6501H6.05956C6.55981 14.6501 6.95613 14.7866 7.25497 15.0659C7.55382 15.3388 7.70325 15.7091 7.70325 16.1704C7.70325 16.6316 7.55382 17.002 7.25497 17.2748C6.95613 17.5542 6.55981 17.6906 6.05956 17.6906H5.25396V19.3993H4.03906ZM5.25396 16.6577H5.92313C6.10502 16.6577 6.24796 16.6187 6.34543 16.5277C6.44286 16.4433 6.49487 16.3263 6.49487 16.1704C6.49487 16.0145 6.4429 15.8976 6.34543 15.8131C6.24799 15.7221 6.10506 15.6832 5.92313 15.6832H5.25396V16.6577ZM8.20348 19.3993V14.6501H9.88613C10.2175 14.6501 10.5293 14.6956 10.8217 14.7931C11.114 14.8905 11.3804 15.027 11.6143 15.2154C11.8482 15.3973 12.0366 15.6441 12.173 15.956C12.3029 16.2679 12.3744 16.6252 12.3744 17.028C12.3744 17.4243 12.3029 17.7816 12.173 18.0934C12.0366 18.4053 11.8482 18.6521 11.6143 18.834C11.3804 19.0224 11.114 19.1589 10.8217 19.2563C10.5293 19.3538 10.2175 19.3993 9.88613 19.3993H8.20348ZM9.39238 18.3663H9.7432C9.9316 18.3663 10.107 18.3468 10.2694 18.3013C10.4253 18.2559 10.5748 18.1844 10.7177 18.0869C10.8542 17.9895 10.9646 17.853 11.0426 17.6711C11.1205 17.4893 11.1595 17.2748 11.1595 17.028C11.1595 16.7746 11.1205 16.5602 11.0426 16.3783C10.9646 16.1964 10.8542 16.06 10.7177 15.9625C10.5748 15.8651 10.4254 15.7936 10.2694 15.7481C10.107 15.7027 9.9316 15.6831 9.7432 15.6831H9.39238V18.3663ZM12.9851 19.3993V14.6501H16.3634V15.6831H14.2V16.4432H15.9281V17.4697H14.2V19.3993H12.9851Z" fill="white"/>
</svg>
