<svg width="24" height="24" viewBox="0 0 24 24" fill="none" xmlns="http://www.w3.org/2000/svg">
<path d="M11 2H6C4.93913 2 3.92172 2.42143 3.17157 3.17157C2.42143 3.92172 2 4.93913 2 6V18C2 19.0609 2.42143 20.0783 3.17157 20.8284C3.92172 21.5786 4.93913 22 6 22H18C19.0609 22 20.0783 21.5786 20.8284 20.8284C21.5786 20.0783 22 19.0609 22 18V13C22 12.7348 21.8946 12.4804 21.7071 12.2929C21.5196 12.1054 21.2652 12 21 12C20.7348 12 20.4804 12.1054 20.2929 12.2929C20.1054 12.4804 20 12.7348 20 13V18C20 18.5304 19.7893 19.0391 19.4142 19.4142C19.0391 19.7893 18.5304 20 18 20H6C5.46957 20 4.96086 19.7893 4.58579 19.4142C4.21071 19.0391 4 18.5304 4 18V6C4 5.46957 4.21071 4.96086 4.58579 4.58579C4.96086 4.21071 5.46957 4 6 4H11C11.2652 4 11.5196 3.89464 11.7071 3.70711C11.8946 3.51957 12 3.26522 12 3C12 2.73478 11.8946 2.48043 11.7071 2.29289C11.5196 2.10536 11.2652 2 11 2ZM18.586 4H15C14.7348 4 14.4804 3.89464 14.2929 3.70711C14.1054 3.51957 14 3.26522 14 3C14 2.73478 14.1054 2.48043 14.2929 2.29289C14.4804 2.10536 14.7348 2 15 2H21C21.2652 2 21.5196 2.10536 21.7071 2.29289C21.8946 2.48043 22 2.73478 22 3V9C22 9.26522 21.8946 9.51957 21.7071 9.70711C21.5196 9.89464 21.2652 10 21 10C20.7348 10 20.4804 9.89464 20.2929 9.70711C20.1054 9.51957 20 9.26522 20 9V5.414L12.707 12.707C12.5184 12.8892 12.2658 12.99 12.0036 12.9877C11.7414 12.9854 11.4906 12.8802 11.3052 12.6948C11.1198 12.5094 11.0146 12.2586 11.0123 11.9964C11.01 11.7342 11.1108 11.4816 11.293 11.293L18.586 4Z" fill="black"/>
</svg>
