<svg width="292" height="70" viewBox="0 0 292 70" fill="none" xmlns="http://www.w3.org/2000/svg">
<g filter="url(#filter0_d_201_2271)">
<rect x="10" y="6" width="80" height="50" rx="7" fill="url(#paint0_linear_201_2271)" shape-rendering="crispEdges"/>
</g>
<g filter="url(#filter1_d_201_2271)">
<rect x="106" y="6" width="80" height="50" rx="7" fill="url(#paint1_linear_201_2271)" shape-rendering="crispEdges"/>
</g>
<g opacity="0.2" filter="url(#filter2_d_201_2271)">
<rect x="202" y="6" width="80" height="50" rx="7" fill="url(#paint2_linear_201_2271)"/>
</g>
<g clip-path="url(#clip0_201_2271)">
<path d="M149.664 23.6529H151.672V20.1549C151.326 20.1072 150.134 20 148.746 20C145.851 20 143.867 21.8214 143.867 25.1691V28.25H140.671V32.1605H143.867V42H147.785V32.1614H150.851L151.338 28.2509H147.784V25.5568C147.785 24.4266 148.089 23.6529 149.664 23.6529Z" fill="#3B5998"/>
</g>
<path d="M53.3428 19C52.0606 19.0887 50.5619 19.9094 49.6885 20.9782C48.8918 21.9478 48.2364 23.3879 48.492 24.7874C49.893 24.831 51.3406 23.9907 52.1793 22.9039C52.964 21.8922 53.5578 20.4611 53.3428 19Z" fill="#2C2929"/>
<path d="M58.4103 27.0691C57.1792 25.5253 55.449 24.6294 53.815 24.6294C51.6579 24.6294 50.7454 25.6621 49.2467 25.6621C47.7014 25.6621 46.5274 24.6324 44.662 24.6324C42.8295 24.6324 40.8784 25.7523 39.6412 27.6674C37.902 30.3641 38.1997 35.4345 41.0182 39.7532C42.0268 41.2985 43.3737 43.0362 45.1355 43.0512C46.7033 43.0662 47.1453 42.0456 49.2693 42.035C51.3933 42.023 51.7962 43.0647 53.361 43.0482C55.1243 43.0347 56.5448 41.1091 57.5535 39.5638C58.2765 38.4559 58.5456 37.8982 59.1063 36.6475C55.0281 35.0947 54.3742 29.2954 58.4103 27.0691Z" fill="#2C2929"/>
<path d="M252.169 29.0873L243.196 29.0869C242.8 29.0869 242.478 29.4081 242.478 29.8043V32.671C242.478 33.0672 242.8 33.3884 243.196 33.3884H248.249C247.696 34.8244 246.663 36.0271 245.345 36.7913L247.5 40.5213C250.957 38.5223 253 35.0148 253 31.0884C253 30.5293 252.959 30.1297 252.876 29.6797C252.814 29.3378 252.517 29.0873 252.169 29.0873Z" fill="#167EE6"/>
<path d="M242 37.6959C239.527 37.6959 237.368 36.3447 236.209 34.3452L232.479 36.4951C234.377 39.7849 237.933 42.0002 242 42.0002C243.995 42.0002 245.878 41.463 247.5 40.5267V40.5216L245.345 36.7915C244.36 37.3632 243.219 37.6959 242 37.6959Z" fill="#12B347"/>
<path d="M247.5 40.5267V40.5216L245.345 36.7915C244.36 37.3631 243.219 37.6959 242 37.6959V42.0002C243.995 42.0002 245.878 41.463 247.5 40.5267Z" fill="#0F993E"/>
<path d="M235.304 30.9998C235.304 29.7808 235.637 28.6404 236.209 27.6548L232.479 25.5049C231.537 27.1217 231 28.9993 231 30.9998C231 33.0002 231.537 34.8779 232.479 36.4947L236.209 34.3448C235.637 33.3592 235.304 32.2188 235.304 30.9998Z" fill="#FFD500"/>
<path d="M242 24.3044C243.613 24.3044 245.094 24.8774 246.251 25.8306C246.537 26.0657 246.951 26.0487 247.213 25.7872L249.244 23.7561C249.541 23.4595 249.52 22.9739 249.203 22.699C247.264 21.0172 244.742 20 242 20C237.933 20 234.377 22.2153 232.479 25.5051L236.209 27.655C237.368 25.6555 239.527 24.3044 242 24.3044Z" fill="#FF4B26"/>
<path d="M246.251 25.8306C246.536 26.0657 246.951 26.0487 247.213 25.7872L249.244 23.7561C249.54 23.4595 249.519 22.9739 249.203 22.699C247.264 21.0172 244.742 20 242 20V24.3044C243.613 24.3044 245.094 24.8774 246.251 25.8306Z" fill="#D93F21"/>
<defs>
<filter id="filter0_d_201_2271" x="0" y="0" width="100" height="70" filterUnits="userSpaceOnUse" color-interpolation-filters="sRGB">
<feFlood flood-opacity="0" result="BackgroundImageFix"/>
<feColorMatrix in="SourceAlpha" type="matrix" values="0 0 0 0 0 0 0 0 0 0 0 0 0 0 0 0 0 0 127 0" result="hardAlpha"/>
<feOffset dy="4"/>
<feGaussianBlur stdDeviation="5"/>
<feComposite in2="hardAlpha" operator="out"/>
<feColorMatrix type="matrix" values="0 0 0 0 0 0 0 0 0 0 0 0 0 0 0 0 0 0 0.02 0"/>
<feBlend mode="normal" in2="BackgroundImageFix" result="effect1_dropShadow_201_2271"/>
<feBlend mode="normal" in="SourceGraphic" in2="effect1_dropShadow_201_2271" result="shape"/>
</filter>
<filter id="filter1_d_201_2271" x="96" y="0" width="100" height="70" filterUnits="userSpaceOnUse" color-interpolation-filters="sRGB">
<feFlood flood-opacity="0" result="BackgroundImageFix"/>
<feColorMatrix in="SourceAlpha" type="matrix" values="0 0 0 0 0 0 0 0 0 0 0 0 0 0 0 0 0 0 127 0" result="hardAlpha"/>
<feOffset dy="4"/>
<feGaussianBlur stdDeviation="5"/>
<feComposite in2="hardAlpha" operator="out"/>
<feColorMatrix type="matrix" values="0 0 0 0 0 0 0 0 0 0 0 0 0 0 0 0 0 0 0.02 0"/>
<feBlend mode="normal" in2="BackgroundImageFix" result="effect1_dropShadow_201_2271"/>
<feBlend mode="normal" in="SourceGraphic" in2="effect1_dropShadow_201_2271" result="shape"/>
</filter>
<filter id="filter2_d_201_2271" x="192" y="0" width="100" height="70" filterUnits="userSpaceOnUse" color-interpolation-filters="sRGB">
<feFlood flood-opacity="0" result="BackgroundImageFix"/>
<feColorMatrix in="SourceAlpha" type="matrix" values="0 0 0 0 0 0 0 0 0 0 0 0 0 0 0 0 0 0 127 0" result="hardAlpha"/>
<feOffset dy="4"/>
<feGaussianBlur stdDeviation="5"/>
<feComposite in2="hardAlpha" operator="out"/>
<feColorMatrix type="matrix" values="0 0 0 0 0 0 0 0 0 0 0 0 0 0 0 0 0 0 0.02 0"/>
<feBlend mode="normal" in2="BackgroundImageFix" result="effect1_dropShadow_201_2271"/>
<feBlend mode="normal" in="SourceGraphic" in2="effect1_dropShadow_201_2271" result="shape"/>
</filter>
<linearGradient id="paint0_linear_201_2271" x1="50" y1="6" x2="50" y2="56" gradientUnits="userSpaceOnUse">
<stop stop-color="white"/>
<stop offset="1" stop-color="#B3B3B3" stop-opacity="0"/>
</linearGradient>
<linearGradient id="paint1_linear_201_2271" x1="146" y1="6" x2="146" y2="56" gradientUnits="userSpaceOnUse">
<stop stop-color="#E3ECFF"/>
<stop offset="0.603589" stop-color="#93B6FF" stop-opacity="0.396411"/>
<stop offset="1" stop-color="#9CB9ED"/>
</linearGradient>
<linearGradient id="paint2_linear_201_2271" x1="202" y1="6" x2="277.5" y2="56" gradientUnits="userSpaceOnUse">
<stop stop-color="#D93F21"/>
<stop offset="0.311918" stop-color="#FF4B26"/>
<stop offset="0.53588" stop-color="#FFD500"/>
<stop offset="0.744217" stop-color="#12B347"/>
<stop offset="1" stop-color="#167EE6"/>
</linearGradient>
<clipPath id="clip0_201_2271">
<rect width="22" height="22" fill="white" transform="translate(135 20)"/>
</clipPath>
</defs>
</svg>
